<?xml version="1.0" encoding="UTF-8"?>
<svg width="22px" height="22px" viewBox="0 0 22 22" version="1.1" xmlns="http://www.w3.org/2000/svg" xmlns:xlink="http://www.w3.org/1999/xlink">
    <!-- Generator: Sketch 53.2 (72643) - https://sketchapp.com -->
    <title>chengjizhenjumin</title>
    <desc>Created with Sketch.</desc>
    <g id="Page-1" stroke="none" stroke-width="1" fill="none" fill-rule="evenodd">
        <g id="社会保障指数字号加大-copy" transform="translate(-40.000000, -655.000000)" fill="#7FAFF6" fill-rule="nonzero">
            <g id="chengjizhenjumin" transform="translate(40.000000, 655.000000)">
                <path d="M7.21879459,12.2630911 C7.21743283,12.3451651 7.24731256,12.4243755 7.30171909,12.482922 C7.35612562,12.5414684 7.43049537,12.5744401 7.50811569,12.5744275 L10.0231789,12.5744275 C10.1830669,12.5744275 10.3125,12.4348629 10.3125,12.2604072 L10.3125,11.3854447 C10.3125,11.210989 10.1856048,11.0714245 10.0231789,11.0714245 L7.50811569,11.0714245 C7.34822771,11.0714245 7.21879459,11.210989 7.21879459,11.3827608 L7.21879459,12.2630911 L7.21879459,12.2630911 Z M10.0231789,5.14261442 C10.1830669,5.14261442 10.3125,5.00304985 10.3125,4.82859415 L10.3125,3.95094775 C10.3125,3.77649205 10.1856048,3.63692748 10.0231789,3.63692748 L7.50811569,3.63692748 C7.34822771,3.63692748 7.21879459,3.77649205 7.21879459,3.94826381 L7.21879459,4.82591021 C7.21743283,4.90798413 7.24731256,4.98719456 7.30171909,5.04574103 C7.35612562,5.1042875 7.43049537,5.13725918 7.50811569,5.13724654 L10.0231789,5.13724654 L10.0231789,5.14261442 Z" id="形状"></path>
                <path d="M9.8152737,20.7162636 C9.8152737,20.2493124 9.86890908,19.7929137 9.96277098,19.3470675 L7.69131284,19.3470675 L7.69131284,17.2629348 L5.31258393,17.2629348 L5.31258393,19.3470675 L1.855784,19.3470675 C1.65733311,19.3470675 1.50179053,19.1914171 1.50179051,18.9961946 L1.50179051,2.03029855 C1.50179051,1.93796355 1.53665351,1.84562856 1.60369771,1.77967498 C1.67074192,1.71372141 1.76192207,1.67678742 1.855784,1.67678742 L11.1481128,1.67678742 C11.2419747,1.67678742 11.3331548,1.71372141 11.400199,1.77967498 C11.4672433,1.84562856 11.504788,1.93796355 11.5021062,2.0276604 L11.5021062,9.25617152 C11.8964664,8.90439572 12.4098698,8.70971105 12.9422161,8.71007598 C12.9636702,8.71007598 12.9824426,8.71007598 13.0038967,8.71271413 L13.0038967,7.65745703 C13.004328,7.46487814 13.1621356,7.30846169 13.3578902,7.30658405 L19.112966,7.30658405 C19.2068279,7.30658405 19.298008,7.34351803 19.3623705,7.40947161 C19.4294147,7.47542519 19.4669595,7.56512203 19.4669595,7.65745703 L19.4669595,8.67841827 C20.0569486,9.04775824 20.5691665,9.52526209 20.96875,10.0898246 L20.96875,6.56526594 C20.96875,6.15899195 20.6335289,5.82922411 20.2232183,5.82922411 L13.001215,5.82922411 L13.001215,0.938107459 C13.0012176,0.531173816 12.6666618,0.200880818 12.2530015,0.199427481 L0.74821349,0.199427481 C0.334920306,0.201744885 0.000877025422,0.531531887 0,0.938107459 L0,20.0857475 C-2.63817556e-06,20.4926811 0.334553169,20.8229741 0.74821349,20.8244275 L9.82063723,20.8244275 C9.81795545,20.7874935 9.8152737,20.7505595 9.8152737,20.7162636 Z" id="路径"></path>
                <path d="M7.09817381,8.43834347 C7.09675896,8.51862007 7.12780367,8.59609589 7.18433146,8.65336026 C7.24085925,8.71062463 7.31812862,8.74287428 7.39877528,8.74286192 L10.0118985,8.74286192 C10.1780204,8.74286192 10.3125,8.60635364 10.3125,8.43571831 L10.3125,7.57729129 C10.3125,7.40665596 10.1806573,7.27014768 10.0118985,7.27014768 L7.39877528,7.27014768 C7.23265341,7.27014768 7.09817381,7.40665596 7.09817381,7.57466613 L7.09817381,8.43834347 L7.09817381,8.43834347 Z M7.09817381,15.707409 C7.09817381,15.788789 7.12981607,15.8649186 7.18519003,15.9226721 C7.240564,15.9804256 7.31966964,16.0119275 7.39877528,16.0119275 L10.0118985,16.0119275 C10.1780204,16.0119275 10.3125,15.8754192 10.3125,15.7047839 L10.3125,14.8463568 C10.3125,14.6757215 10.1806573,14.5392132 10.0118985,14.5392132 L7.39877528,14.5392132 C7.23265341,14.5392132 7.09817381,14.6757215 7.09817381,14.8437317 L7.09817381,15.707409 Z M5.96432619,7.57991644 C5.96432619,7.4092811 5.83248345,7.27277282 5.66372472,7.27277282 L3.05060145,7.27277282 C2.88447958,7.27277282 2.74999998,7.4092811 2.75,7.57729129 L2.75,8.43571831 C2.75,8.51447307 2.78164226,8.59322786 2.8370162,8.65098135 C2.89239016,8.70873484 2.9714958,8.74023675 3.05060145,8.74023677 L5.66372472,8.74023677 C5.82984659,8.74023677 5.96432619,8.6037285 5.96432619,8.43309316 L5.96432619,7.57991644 Z M5.96432619,11.2131366 C5.96432619,11.0425013 5.83248345,10.905993 5.66372472,10.905993 L3.05060145,10.905993 C2.88447958,10.905993 2.74999998,11.0425013 2.75,11.2105115 L2.75,12.0689385 C2.75,12.1476933 2.78164226,12.2264481 2.8370162,12.2842016 C2.89239016,12.341955 2.9714958,12.373457 3.05060145,12.373457 L5.66372472,12.373457 C5.82984659,12.373457 5.96432619,12.2369487 5.96432619,12.0663134 L5.96432619,11.2131366 Z M5.96432619,3.94407109 C5.96432619,3.77343576 5.83248345,3.63692748 5.66372472,3.63692748 L3.05060145,3.63692748 C2.88447958,3.63692748 2.74999998,3.77343576 2.75,3.94407109 L2.75,4.80249811 C2.75,4.88125287 2.78164226,4.96000766 2.8370162,5.01776115 C2.895027,5.07551464 2.96885894,5.10701655 3.05060145,5.10701658 L5.66372472,5.10701658 C5.82984659,5.10701658 5.96432619,4.9705083 5.96432619,4.79987296 L5.96432619,3.94407109 Z M3.05060145,14.5418384 C2.88447958,14.5418384 2.74999998,14.6783467 2.75,14.8463568 L2.75,15.7047839 C2.75,15.7835386 2.78164226,15.8622934 2.8370162,15.9200469 C2.89239016,15.9778004 2.9714958,16.0093023 3.05060145,16.0093023 L5.66372472,16.0093023 C5.82984659,16.0093023 5.96432619,15.872794 5.96432619,15.7021587 L5.96432619,14.8437317 C5.96432619,14.6730964 5.83248345,14.5365881 5.66372472,14.5365881 L3.05060145,14.5365881 L3.05060145,14.5418384 Z" id="形状"></path>
                <path d="M16.4999941,9.13692748 C15.67754,9.13692748 14.911345,9.3913717 14.2817792,9.82339675 C14.2817792,9.82339675 14.2791002,9.82339675 14.2791002,9.82604719 C13.9227928,10.0460354 13.290548,10.0062785 12.8270804,9.97977392 C12.3850448,9.95591977 12.0019473,10.2872273 11.9751573,10.7245533 C11.9485839,11.1626921 12.2851963,11.5395685 12.7279572,11.5673997 L12.8726234,11.5753511 C12.6958092,12.017978 12.5940071,12.4977114 12.594007,13.0012989 C12.594007,14.1595501 13.1137337,15.1958802 13.9335088,15.9062035 C12.1921565,16.8179619 11,18.6308769 11,20.7167893 C11,21.1567658 11.3589865,21.5119275 11.803701,21.5119275 C12.2484156,21.5119275 12.6074021,21.1567658 12.6074021,20.7167893 C12.6074021,18.5937705 14.3541123,16.8656703 16.5026731,16.8656702 C18.6565919,16.8656702 20.4059811,15.1322691 20.4059811,13.0039493 C20.4059812,10.8756296 18.6539129,9.13692748 16.4999941,9.13692748 L16.4999941,9.13692748 Z M16.4999941,15.2727435 C15.2328255,15.2727435 14.2040881,14.2523162 14.2040881,13.0012989 C14.2040881,11.7502815 15.2355045,10.7298542 16.4999941,10.7298542 C17.7644837,10.7298542 18.7959,11.7502815 18.7959,13.0012989 C18.7959001,14.2523162 17.7671627,15.2727435 16.4999941,15.2727435 L16.4999941,15.2727435 Z M20.7301405,17.2340843 C20.4456723,16.8966786 19.9389514,16.8504574 19.5969221,17.1307163 C19.2558829,17.4121538 19.209164,17.9134758 19.492441,18.2518611 C20.0737847,18.9409808 20.3925861,19.8156328 20.3925861,20.7167893 C20.3925861,21.1567658 20.7515726,21.5119275 21.1962871,21.5119275 C21.6410017,21.5119275 21.9999882,21.1567658 21.9999882,20.7167893 C22.0026672,19.4445683 21.5499156,18.2094537 20.7301405,17.2340843 L20.7301405,17.2340843 Z" id="形状"></path>
            </g>
        </g>
    </g>
</svg>