<?xml version="1.0" encoding="UTF-8"?>
<svg width="22px" height="22px" viewBox="0 0 22 22" version="1.1" xmlns="http://www.w3.org/2000/svg" xmlns:xlink="http://www.w3.org/1999/xlink">
    <!-- Generator: Sketch 53.2 (72643) - https://sketchapp.com -->
    <title>huaban-</title>
    <desc>Created with Sketch.</desc>
    <g id="Page-1" stroke="none" stroke-width="1" fill="none" fill-rule="evenodd">
        <g id="社会保障指数字号加大-copy" transform="translate(-40.000000, -694.000000)" fill="#7FAFF6" fill-rule="nonzero">
            <g id="huaban-" transform="translate(40.000000, 694.000000)">
                <path d="M21.3127198,9.625 L16.4999999,9.625 L16.4999999,7.56250002 C16.5000933,7.38013505 16.4276905,7.20521244 16.298739,7.07626092 C16.1697875,6.9473094 15.9948649,6.87490658 15.8124999,6.87500003 L11.6875,6.87500003 L11.6875,5.50000004 L17.1874999,5.50000004 C17.4410775,5.50007624 17.6741007,5.36053443 17.7937484,5.13695885 C17.9133961,4.91338327 17.9002321,4.64209296 17.7594999,4.43115205 L16.6389519,2.75000006 L17.7592799,1.06884808 C17.9000121,0.857907172 17.9131761,0.586616856 17.7935284,0.36304128 C17.6738807,0.139465704 17.4408575,-7.61069838e-05 17.1872799,9.03350757e-08 L11,9.03350757e-08 C10.817635,-9.33523094e-05 10.6427124,0.0723094674 10.5137609,0.201260988 C10.3848094,0.330212508 10.3124066,0.505135119 10.3125,0.687500084 L10.3125,6.87500003 L6.18750009,6.87500003 C6.00513513,6.87490658 5.83021252,6.9473094 5.701261,7.07626092 C5.57230948,7.20521244 5.49990666,7.38013505 5.5000001,7.56250002 L5.5000001,9.625 L0.68750019,9.625 C0.505100664,9.6249182 0.330151465,9.69735496 0.201196145,9.82635155 C0.0722408249,9.95534813 -0.000139960791,10.1303205 2.03189559e-07,10.31272 L2.03189559e-07,21.3127199 C-4.65305887e-05,21.4950503 0.0723783151,21.6699232 0.201326035,21.7988296 C0.330273754,21.9277361 0.505169782,22.000105 0.68750019,21.9999999 L21.3127198,21.9999999 C21.4950121,22.0000466 21.6698516,21.9276519 21.7987517,21.7987518 C21.9276518,21.6698517 22.0000465,21.4950122 21.9999998,21.3127199 L21.9999998,10.31272 C22.0001399,10.1303586 21.9277893,9.95541964 21.7988816,9.82642939 C21.6699739,9.69743914 21.4950812,9.62497659 21.3127198,9.625 Z M11.6875,1.37500008 L15.9030959,1.37500008 L15.2404999,2.36865207 C15.0867191,2.59962917 15.0867191,2.90037096 15.2404999,3.13134806 L15.9030959,4.12500005 L11.6875,4.12500005 L11.6875,1.37500008 L11.6875,1.37500008 Z M1.37500018,11 L5.5000001,11 L5.5000001,20.6249999 L1.37500018,20.6249999 L1.37500018,11 Z M13.7499999,17.8749999 C13.5676004,17.8749181 13.3926512,17.9473549 13.2636959,18.0763515 C13.1347406,18.2053481 13.0623598,18.3803204 13.0625,18.5627199 L13.0625,20.6249999 L8.93750004,20.6249999 L8.93750004,18.5627199 C8.93750004,18.1830242 8.62969581,17.8752199 8.25000005,17.8752199 C7.87030429,17.8752199 7.56250006,18.1830242 7.56250006,18.5627199 L7.56250006,20.6249999 L6.87500008,20.6249999 L6.87500008,8.25000001 L15.1249999,8.25000001 L15.1249999,20.6249999 L14.4374999,20.6249999 L14.4374999,18.5627199 C14.4376401,18.3803204 14.3652593,18.2053481 14.236304,18.0763515 C14.1073487,17.9473549 13.9323995,17.8749181 13.7499999,17.8749999 Z M20.6249998,20.6249999 L16.4999999,20.6249999 L16.4999999,11 L20.6249998,11 L20.6249998,20.6249999 Z M7.56250006,13.75 L8.93750004,13.75 L8.93750004,12.375 L7.56250006,12.375 L7.56250006,13.75 Z M2.75000015,13.75 L4.12500013,13.75 L4.12500013,12.375 L2.75000015,12.375 L2.75000015,13.75 Z M2.75000015,16.4999999 L4.12500013,16.4999999 L4.12500013,15.1249999 L2.75000015,15.1249999 L2.75000015,16.4999999 Z M2.75000015,19.2499999 L4.12500013,19.2499999 L4.12500013,17.8749999 L2.75000015,17.8749999 L2.75000015,19.2499999 Z M19.2499998,12.375 L17.8749999,12.375 L17.8749999,13.75 L19.2499998,13.75 L19.2499998,12.375 Z M19.2499998,15.1249999 L17.8749999,15.1249999 L17.8749999,16.4999999 L19.2499998,16.4999999 L19.2499998,15.1249999 Z M19.2499998,17.8749999 L17.8749999,17.8749999 L17.8749999,19.2499999 L19.2499998,19.2499999 L19.2499998,17.8749999 Z M10.3125,13.75 L11.6875,13.75 L11.6875,12.375 L10.3125,12.375 L10.3125,13.75 Z M14.4374999,12.375 L13.0625,12.375 L13.0625,13.75 L14.4374999,13.75 L14.4374999,12.375 Z M7.56250006,16.4999999 L8.93750004,16.4999999 L8.93750004,15.1249999 L7.56250006,15.1249999 L7.56250006,16.4999999 Z M10.3125,16.4999999 L11.6875,16.4999999 L11.6875,15.1249999 L10.3125,15.1249999 L10.3125,16.4999999 Z M10.3125,19.2499999 L11.6875,19.2499999 L11.6875,17.8749999 L10.3125,17.8749999 L10.3125,19.2499999 Z M14.4374999,15.1249999 L13.0625,15.1249999 L13.0625,16.4999999 L14.4374999,16.4999999 L14.4374999,15.1249999 Z M7.56250006,11 L8.93750004,11 L8.93750004,9.625 L7.56250006,9.625 L7.56250006,11 Z M10.3125,11 L11.6875,11 L11.6875,9.625 L10.3125,9.625 L10.3125,11 Z M14.4374999,9.625 L13.0625,9.625 L13.0625,11 L14.4374999,11 L14.4374999,9.625 Z" id="形状"></path>
            </g>
        </g>
    </g>
</svg>