<?xml version="1.0" encoding="UTF-8"?>
<svg width="22px" height="21px" viewBox="0 0 22 21" version="1.1" xmlns="http://www.w3.org/2000/svg" xmlns:xlink="http://www.w3.org/1999/xlink">
    <!-- Generator: Sketch 53.2 (72643) - https://sketchapp.com -->
    <title>yuangongruzhi</title>
    <desc>Created with Sketch.</desc>
    <g id="Page-1" stroke="none" stroke-width="1" fill="none" fill-rule="evenodd">
        <g id="社会保障指数字号加大-copy" transform="translate(-40.000000, -610.000000)" fill="#7FAFF6" fill-rule="nonzero">
            <g id="yuangongruzhi" transform="translate(40.000000, 610.000000)">
                <path d="M1.3775403,18.1005586 L1.3775403,4.46502658 C1.3775403,4.28585222 1.52417875,4.1401806 1.70410866,4.1401806 L8.51049545,4.1401806 C8.67984865,5.29991139 9.68478674,6.19380209 10.8955928,6.19380209 C12.1063989,6.19380209 13.111614,5.29991139 13.2810176,4.1401806 L20.2962439,4.1401806 C20.4758464,4.1401806 20.6224597,4.28585224 20.6224597,4.46502658 L20.6224597,12.4762142 L22,12.4762142 L22,4.46502658 C22,3.5296587 21.2358834,2.76842473 20.2962439,2.76842475 L13.3063009,2.76842475 L13.3063009,1.04968002 C13.3063009,0.670893645 12.9982418,0.363802083 12.6175308,0.363802083 L9.17398222,0.363802083 C8.79362375,0.363802083 8.48521206,0.670893645 8.48521208,1.04968002 L8.48521208,2.76839967 L1.70410866,2.76839967 C0.764443958,2.76839967 0,3.52963364 0,4.46500153 L0,18.1005336 C0,19.0359014 0.764443958,19.7971354 1.70410866,19.7971354 L12.7883446,19.7971354 L12.7883446,18.4253796 L1.70410866,18.4253796 C1.52417875,18.4254046 1.3775403,18.279733 1.3775403,18.1005586 L1.3775403,18.1005586 Z M9.86275238,1.73555794 L11.9287354,1.73555794 L11.9287354,3.79319173 C11.9287354,4.36050614 11.4652995,4.82202115 10.8955676,4.82202115 C10.3258358,4.82202115 9.86275238,4.3605312 9.86275238,3.79319173 L9.86275238,1.73555794 L9.86275238,1.73555794 Z" id="形状"></path>
                <path d="M2.93333335,14.2060746 L2.93333335,15.4957521 C2.93333335,15.8789839 3.23868184,16.1897254 3.61526248,16.1897254 L11.9875503,16.1897254 C12.36448,16.1897254 12.6694794,15.8789838 12.6694794,15.4957521 L12.6694794,14.2060746 C12.6695267,13.9431959 12.5235967,13.7028611 12.2925497,13.585302 L9.77927763,12.3071438 L10.4292433,11.3448016 C10.5072617,11.2290876 10.5490511,11.0920587 10.5491188,10.9517252 L10.5491188,8.92029722 C10.5491188,7.41205784 9.36472478,6.23046875 7.85236842,6.23046875 C6.3403362,6.23046875 5.15561802,7.41205784 5.15561804,8.92029722 L5.15561804,10.9517252 C5.15558293,11.0958826 5.19968831,11.2364688 5.28180147,11.3539359 L5.9440838,12.301714 L3.32058513,13.580202 C3.08388241,13.6955785 2.93327694,13.9389856 2.93333335,14.2060746 L2.93333335,14.2060746 Z M4.29721657,14.6431983 L7.264011,13.1973001 C7.44547228,13.1089242 7.57929068,12.9434703 7.62962137,12.7452571 C7.67987654,12.5469473 7.64162496,12.3361761 7.52507933,12.1692168 L6.51950126,10.7300932 L6.51950126,8.92027185 C6.51950126,8.19037056 7.1048668,7.61838999 7.85239336,7.61838999 C8.59991992,7.61838999 9.18528546,8.19037056 9.18528546,8.92027185 L9.18528546,10.736208 L8.21134674,12.1783765 C8.09971069,12.3439156 8.06389054,12.550503 8.11311264,12.7449272 C8.16234889,12.9393274 8.29194084,13.1024801 8.46840095,13.1922255 L11.305671,14.635079 L11.305671,14.8018041 L4.29721657,14.8018041 L4.29721657,14.6431983 Z M21.7683504,14.332812 C21.4866629,14.0807072 21.0544578,14.1071458 20.8060552,14.3958382 L17.2372403,18.5251203 L14.7765759,16.6105851 C14.4775603,16.3781443 14.0500175,16.4360706 13.8202644,16.7403674 C13.5918577,17.044994 13.6491277,17.4804178 13.9481184,17.7132139 L16.9149128,20.0211553 C17.0337779,20.1138429 17.1793942,20.1639882 17.3291415,20.1638016 C17.5252727,20.1639938 17.7119414,20.0780283 17.8412554,19.9279608 L21.8302828,15.3124077 C22.0786854,15.0244257 22.0513594,14.5859318 21.7683504,14.332812 L21.7683504,14.332812 Z M16.6298843,12.4609795 C17.006814,12.4609795 17.3118135,12.1502379 17.3118135,11.7670061 C17.3118134,11.3837743 17.006814,11.0730328 16.6298843,11.0730328 L13.8588849,11.0730328 C13.4819552,11.0730328 13.1769558,11.3837744 13.1769558,11.7670061 C13.1769558,12.1502379 13.4819552,12.4609795 13.8588849,12.4609795 L16.6298843,12.4609795 Z M13.8588849,8.13109954 C13.4819552,8.13109954 13.1769558,8.44184107 13.1769558,8.82507287 C13.1769558,9.20830466 13.4819552,9.51904619 13.8588849,9.51904616 L18.1981892,9.51904616 C18.5751189,9.51904616 18.8801184,9.20830464 18.8801184,8.82507287 C18.8801184,8.44181569 18.5751189,8.13109954 18.1981892,8.13109954 L13.8588849,8.13109954 Z" id="形状"></path>
            </g>
        </g>
    </g>
</svg>