<svg id="图层_1" data-name="图层 1" xmlns="http://www.w3.org/2000/svg" viewBox="0 0 115.13 114.62"><defs><style>.cls-1{fill:#e4d354;}.cls-2{fill:#7cb5ec;}.cls-3{fill:#90ed7d;}.cls-4{fill:#f7a35c;}.cls-5{fill:#8085e9;}.cls-6{fill:#f15c80;}.cls-7{fill:#434348;}.cls-8{fill:#051424;}.cls-9{fill:#fff;}</style></defs><title>行业流向</title><g id="Page-1"><g id="分组-85"><g id="分组-66"><path id="合并形状" class="cls-1" d="M78.47,37V57.91L71.3,60.52,59.86,41.92A42.59,42.59,0,0,1,78.47,37Z" transform="translate(-22.23 -22.64)"/><path id="合并形状-2" data-name="合并形状" class="cls-2" d="M78.47,37l1.35,0A42.72,42.72,0,0,1,112.6,52.28l-10,8.24-24.1-2.61Z" transform="translate(-22.23 -22.64)"/><path id="合并形状-3" data-name="合并形状" class="cls-3" d="M119.41,96.13a42.94,42.94,0,0,1-26.31,24.4l-3.92-16.3,20.1-12.48Z" transform="translate(-22.23 -22.64)"/><path id="合并形状-4" data-name="合并形状" class="cls-4" d="M93.1,120.53a42.91,42.91,0,0,1-37.46-5.37l7.58-12.37,26,1.44Z" transform="translate(-22.23 -22.64)"/><path id="合并形状-5" data-name="合并形状" class="cls-5" d="M37.13,83.13l15.4-1.24,10.69,20.89-7.48,12.44A42.78,42.78,0,0,1,37.13,83.13Z" transform="translate(-22.23 -22.64)"/><path id="合并形状-6" data-name="合并形状" class="cls-6" d="M37.13,83.13Q37,81.49,37,79.81A42.81,42.81,0,0,1,59.86,41.92L71.3,60.52,52.53,81.89Z" transform="translate(-22.23 -22.64)"/><path id="合并形状-7" data-name="合并形状" class="cls-7" d="M112.6,52.28a42.87,42.87,0,0,1,6.81,43.85l-10.14-4.39-6.7-31.22Z" transform="translate(-22.23 -22.64)"/></g><circle id="椭圆形-copy-21" class="cls-8" cx="58.21" cy="57.8" r="32.44"/></g></g><path class="cls-9" d="M70.46,63V64.2h8.38V63ZM70,67.4v1.24H75.5V76c0,.46-.3.68-.86.68-.77,0-1.56,0-2.4-.09l.26,1.24h2.57c1.12,0,1.7-.51,1.7-1.52V68.65h2.84V67.4ZM67.69,62a12.13,12.13,0,0,1-4,4.41l.37,1.26a13.92,13.92,0,0,0,4.73-5.15L67.69,62Zm.82,4a14.24,14.24,0,0,1-4.67,5.16l.37,1.26a22.3,22.3,0,0,0,2.29-1.82v7.3h1.24V69.31a13.91,13.91,0,0,0,1.91-2.8L68.52,66Zm18-4V75.93H81.31v1.23H96.81V75.93H91.56V62H90.28V75.93H87.8V62Zm8.7,3.19a37.79,37.79,0,0,1-2.66,7.91l1.14.4a40.42,40.42,0,0,0,2.64-8l-1.12-.32Zm-12.41,0-1.07.35a65.53,65.53,0,0,1,2.36,8.09l1.16-.3a62.24,62.24,0,0,0-2.45-8.14Z" transform="translate(-22.23 -22.64)"/><path class="cls-9" d="M69.8,90.51c3-.18,5.81-.4,8.38-.7.28.46.56.89.81,1.33l1-.74a28.5,28.5,0,0,0-2.71-3.76l-1,.61c.42.53.81,1,1.19,1.54-2,.25-4,.42-6,.53a18,18,0,0,0,2.17-3.2H80V85h-4.6a18.34,18.34,0,0,0-.77-2l-1.28.21A17.05,17.05,0,0,1,74.16,85H69.27v1.14h3.06a10.48,10.48,0,0,1-2.56,3.22l-.26.11.28,1.07ZM66,83.44l-.91.88a16.76,16.76,0,0,1,2.71,2.28l.89-.89A19.28,19.28,0,0,0,66,83.44Zm-.42,4.18-.89.88a17.6,17.6,0,0,1,2.77,2.57l.89-.91a18.89,18.89,0,0,0-2.77-2.54Zm1.79,4.66a55.53,55.53,0,0,1-2.35,6.23l1.17.51a65.92,65.92,0,0,0,2.29-6.3l-1.12-.44Zm6-1V98.9h1.28V91.32Zm-2.84,0a16.29,16.29,0,0,1-.6,4.5,5.62,5.62,0,0,1-1.79,2.43l.81,1a6.82,6.82,0,0,0,2.12-2.89,17.65,17.65,0,0,0,.68-5Zm8.33,7.77a1.63,1.63,0,0,0,1.35-.54,7.31,7.31,0,0,0,.32-2.84l-1.1-.42a13.86,13.86,0,0,1-.11,2c0,.39-.21.58-.53.61H78c-.23,0-.33-.18-.33-.44V91.32H76.48v6.39c0,.91.49,1.37,1.51,1.37Zm7.71-9.64v6.13H93V89.43Zm5.23,4.94h-4V90.62h4v3.75ZM88.64,83.14a10.73,10.73,0,0,1-.91,2.61H82.92V99.21h1.26V87H95.52V97.15a.68.68,0,0,1-.75.77l-2.56-.05.35,1.28h2.63c1.05,0,1.59-.58,1.59-1.72V85.75H89.06A10.88,10.88,0,0,0,90,83.32l-1.31-.18Z" transform="translate(-22.23 -22.64)"/><path class="cls-9" d="M25.77,76.18l.16-1.87,1.94.17-.16,1.87-1.94-.17Zm-.59-1.94L25,76.11l-2-.17.16-1.87,2,.17Zm3.28,2.18.17-1.88,2.62.23c.42,0,.61.21.59.5s-.07.57-.13.89l.76-.13.08-.93c.06-.65-.27-1-1-1.07l-9.06-.8-.3,3.39,5.57.49a10.21,10.21,0,0,1,4,1.06l.64-.58a10.88,10.88,0,0,0-3.93-1.18Zm-.76-4.51,0-.28a7.31,7.31,0,0,0,3.2-1.23,5.73,5.73,0,0,1,1.22,1.8l.71-.38a6.22,6.22,0,0,0-1.28-1.93,9.52,9.52,0,0,0,1.6-1.78l-.67-.48A9.12,9.12,0,0,1,31,69.37,8.53,8.53,0,0,0,28,68l-.71-.06L27,71.85l-3.52-.31.27-3.1a8.08,8.08,0,0,1,1.69.3.54.54,0,0,1,.31.34,2.61,2.61,0,0,1,0,.62c0,.33-.06.58-.08.78l.74-.16.08-.94c.06-.73-.14-1.18-.61-1.36A12.28,12.28,0,0,0,23,67.56l-.41,4.7,10.17.9.07-.79-5.14-.45Zm.09-1L28,68.71a7.93,7.93,0,0,1,2.33,1.16,6.44,6.44,0,0,1-2.53,1Z" transform="translate(-22.23 -22.64)"/><path class="cls-9" d="M24.44,61,27,62a14.88,14.88,0,0,1,.12,3.15l.83,0a17.11,17.11,0,0,0-.18-2.82l1.56.6.31-.8-4.9-1.88-.31.8Zm1.79-1,.71.27L27.83,58l1.61.62-.76,2,.71.27,1.83-4.76-.71-.27-.76,2-1.61-.62L29,54.89l-.71-.27-.88,2.29-1.26-.48-.31.8,1.26.48L26.23,60Zm-2.14,3.27.45.65a8,8,0,0,1,1.75-1.3L25.83,62a9,9,0,0,0-1.73,1.3Zm4.83,2.53.72.28,1.54-4a10.88,10.88,0,0,1,.32,4.8l.82-.15a18.93,18.93,0,0,0,0-2.32l.92.35c.17.07.26.24.26.5l.74.1c.25-1.44.43-2.68.51-3.74L34,61.47a23.39,23.39,0,0,1-.29,2.64l-1.48-.57a8.13,8.13,0,0,0-.71-2.3,8,8,0,0,0,5.48-3l-.51-.71a8.62,8.62,0,0,1-2.09,2,8.57,8.57,0,0,0-.64-2.07l-.7.37a7.82,7.82,0,0,1,.69,2.09,6.67,6.67,0,0,1-1.93.62l1.56-4.06-.72-.28L31,60.35a7.26,7.26,0,0,0-1.28.21l0,.81a6.08,6.08,0,0,1,1-.21l-1.79,4.66Z" transform="translate(-22.23 -22.64)"/><path class="cls-9" d="M31.22,51.76l.94-1.34,1.23.86L31.78,53.6l.64.45L34,51.73l1,.7-1.32,1.88,3.44,2.41.47-.67-2.8-2,.85-1.22,3.41,2.38.48-.69-3.41-2.38L37,51l1.74,1.22a.43.43,0,0,1,.09.67l-.36.45.77.28.35-.51a.92.92,0,0,0-.25-1.46l-2.53-1.76-1.3,1.87-1-.7L36,49l-.64-.45-1.44,2.07-1.23-.86,1.25-1.79-.64-.45L32,49.28l-1.19-.83-.48.69,1.19.83-.78,1.11a7.91,7.91,0,0,0-.71-.77l-.56.58A4.74,4.74,0,0,1,31,53.3l.79-.27a4.27,4.27,0,0,0-.53-1.26Zm2.29-5.33,5.91,4.13.47-.67L34,45.76l-.47.67Zm9,3.7a1,1,0,0,0-.28-1.51l-7.76-5.42-.47.68,7.59,5.3a.49.49,0,0,1,.15.76c-.29.42-.62.85-1,1.29l.77.31,1-1.41Z" transform="translate(-22.23 -22.64)"/><path class="cls-9" d="M37.68,40.12l-.09.78a13.59,13.59,0,0,1,2.78.24l.07-.82a14.24,14.24,0,0,0-2.76-.2Zm11.87,3.6L51.63,42l-.38-.78c-.23.22-.56.51-1,.89s-.87.76-1.3,1.12c-.7.59-1.29,1.07-1.76,1.45a4.35,4.35,0,0,1-1.39.81,2.64,2.64,0,0,1-1.17,0,2,2,0,0,0-.39,0l-2.81-3.34L39.58,43.7l.5.59,1.27-1.07,2.28,2.71a4.61,4.61,0,0,0-.11,2.46l.85,0c-.21-1.26-.19-2,0-2.16a.64.64,0,0,1,.54-.07,2.67,2.67,0,0,0,1.49-.14,7.6,7.6,0,0,0,1.54-1l1.6-1.32Zm-7.5-4.53L43.43,38l1,1.16-2.55,2.15.5.59,5.46-4.59-.5-.59L45,38.68l-1-1.16L45.87,36l-.5-.6-1.83,1.54-.9-1.07-.62.52.9,1.07-1.13,1c-.11-.32-.24-.63-.4-1l-.69.36a8.41,8.41,0,0,1,.78,2.85l.81-.12a8.81,8.81,0,0,0-.25-1.33ZM43.71,42l2.11,2.51,4-3.36-2.11-2.51-4,3.36Zm5-.93-2.75,2.31-1.1-1.31,2.75-2.31,1.1,1.31Z" transform="translate(-22.23 -22.64)"/><path class="cls-9" d="M52.83,29.52l.33.72L56,29a14.24,14.24,0,0,1-1.07,2,1.56,1.56,0,0,1-.32.28l.48.59c2.76-1.4,5-2.56,6.68-3.52a12.66,12.66,0,0,1,1.18.48l.43-.74a19.9,19.9,0,0,0-3.16-1l2.49-1.14-.33-.72-4.26,2a10.54,10.54,0,0,0-.87-.78l-.82.54a7.57,7.57,0,0,1,.83.63l-4.4,2Zm4.1-1,3.17-1.46-.37.58c.4.1.79.21,1.16.34-1.37.77-3,1.65-5,2.65a12.09,12.09,0,0,0,1.08-2.12ZM57.72,34l4.83-2.21.38.84L58.1,34.81,57.72,34Zm4.52-2.87-4.83,2.21-.41-.9,4.83-2.21.41.9Zm-3.84,4.37,4.83-2.21.27.59c.13.29,0,.51-.3.66l-1,.44.54.65,1.08-.5a1,1,0,0,0,.57-1.45l-2-4.46L55.94,32.1l2.51,5.47.76-.35-.81-1.76Z" transform="translate(-22.23 -22.64)"/><path class="cls-9" d="M65.64,26.19l1.61-.25.23,1.49-2.79.43.12.77,2.79-.43.19,1.21-2.27.35.64,4.15L67,33.8l-.52-3.38,1.47-.22.63,4.11.83-.13-.63-4.11,1.45-.22.32,2.1c0,.3-.1.48-.43.53l-.57.05.33.75.61-.09A.92.92,0,0,0,71.33,32l-.47-3-2.25.35-.19-1.21,2.49-.38-.12-.77-2.49.38-.23-1.49,2.16-.33-.12-.77L68,25l-.22-1.43-.83.13.22,1.43-1.34.21a7.91,7.91,0,0,0,.06-1h-.8a4.74,4.74,0,0,1-.71,2.74l.74.38a4.27,4.27,0,0,0,.55-1.25Zm5.44-2,1.09,7.13.81-.12L71.89,24l-.81.12Zm3.55,9.08A1,1,0,0,0,75.53,32l-1.44-9.36-.82.13,1.4,9.15a.49.49,0,0,1-.45.64c-.51.08-1,.14-1.6.19l.31.77,1.7-.26Z" transform="translate(-22.23 -22.64)"/><path class="cls-9" d="M91.15,23.85,84,23.17,83,33.31l.84.08.08-.89,5.49.52-.08.88.85.08,1-10.13ZM84,31.68l.33-3.5,5.49.52-.33,3.5L84,31.68Zm.41-4.31.31-3.31,5.49.52-.31,3.31-5.49-.52Z" transform="translate(-22.23 -22.64)"/><path class="cls-9" d="M96.11,28.75l2.76,1.07-.74,1.9-2.76-1.07.74-1.9Zm-1.06,2.6,2.8,1.09-1.24,3.18.8.31,1.24-3.18,3,1.15-.74,1.89c-.18.46-.47.6-.86.45s-.76-.32-1.19-.51l-.09.85,1.25.49a1.08,1.08,0,0,0,1.58-.7l3.17-8.14-8.09-3.15-2,5.21a6.78,6.78,0,0,1-2.51,3.26l.39.76a7,7,0,0,0,2.56-3Zm6.84,1.84-3-1.15.74-1.9,3,1.15-.74,1.9Zm1-2.63-3-1.15.73-1.87,3,1.15-.73,1.87Zm-3-3.33-.73,1.87L96.4,28l.73-1.87,2.76,1.07Z" transform="translate(-22.23 -22.64)"/><path class="cls-9" d="M109.48,31.13l-2.2,3.12,5.25,3.7,2.2-3.12-5.25-3.7Zm2.83,5.69-3.88-2.73,1.28-1.82L113.59,35l-1.28,1.82Zm-3.6-.15-3.36-2.36-2.91,4.14.68.48.34-.49,2,1.42-.34.49.67.47,2.91-4.14Zm-4.79,1.12,1.65-2.35,2,1.42-1.65,2.35-2-1.42Zm9.23,2-3.45-2.43-2.91,4.14.68.48.34-.49L109.89,43l-.34.49.69.48,2.91-4.14Zm-4.89,1.05,1.65-2.35L112,40l-1.65,2.35-2.09-1.47Z" transform="translate(-22.23 -22.64)"/><path class="cls-9" d="M123,47.41l-.56.38L123.9,50l-1.4.93-2.31-3.46-.65.43,2.31,3.46-2.59,1.73L118.52,52a13.92,13.92,0,0,0,1.42-2.14l-.65-.48a11.26,11.26,0,0,1-1.22,1.93l-1.34-2-.67.45,5.53,8.3.67-.45-1.34-2a14.71,14.71,0,0,0,2.35-.4l-.2-.79a18,18,0,0,1-2.62.49l-.72-1.08,2.59-1.73,2.3,3.45.65-.43L123,51.62l1.4-.93,1.47,2.2.53-.36a14,14,0,0,0,.24,1.92h.85a12.27,12.27,0,0,1,.13-6l-.38-.56a14.75,14.75,0,0,1-5.65-2.21l-.31.8a17.86,17.86,0,0,0,1.75.94Zm3.36,4.89-3.22-4.83a14.79,14.79,0,0,0,3.6,1.13,11.36,11.36,0,0,0-.38,3.7Z" transform="translate(-22.23 -22.64)"/><path class="cls-9" d="M128.52,59.17l-1.89.73,1,2.57-.62.24-1.2-3.09-3.26,1.26.28.73,2.63-1,.91,2.36-1,.39c-.26-.54-.51-1.09-.78-1.66l-.59.42c.61,1.23,1.22,2.37,1.81,3.44l-.43.37.45.45A14.38,14.38,0,0,0,127.18,65l.5,1.29-1.54.6c-.28.11-.47,0-.57-.21l-.39-1.11-.6.43.44,1.14a.84.84,0,0,0,1.24.51l2.33-.9-1.3-3.35.62-.24,1,2.61,1.89-.73-1-2.61.6-.23c.49,1.11,1,2.08,1.4,2.9l.44-.55a63.34,63.34,0,0,1-2.8-6.37l-.51.42c.4,1,.79,2,1.16,2.87l-.57.22-1-2.57Zm-1.88,4.48.3.77a8.6,8.6,0,0,1-.66.68L125.7,64l.94-.36Zm2.57,1.24-.74-1.9.75-.29.74,1.9-.75.29Zm-1-2.64-.72-1.85.75-.29.72,1.85-.75.29Zm5.69,1.38-.81.31-2.59-6.68.81-.31,2.59,6.68Zm-4-6.14,2.88,7.43,2-.79-3.17-8.19-3.19,1.23a14.31,14.31,0,0,1-6.12,1.13l-.3.78a15.53,15.53,0,0,0,6.71-1.15l1.15-.45Z" transform="translate(-22.23 -22.64)"/><path class="cls-9" d="M134.06,69.13l.2,1.62-1.49.19-.35-2.8-.78.1L132,71l-1.22.15-.28-2.28-4.17.52.1.81,3.39-.42.18,1.47-4.12.51.1.83,4.12-.51.18,1.46-2.11.26c-.3,0-.47-.12-.51-.44l0-.57-.76.31.08.61a.92.92,0,0,0,1.16.91l3.06-.38L130.88,72l1.22-.15.31,2.5.78-.1-.31-2.5,1.49-.19.27,2.17.78-.1-.27-2.17,1.44-.18-.1-.83-1.44.18-.17-1.34a7.91,7.91,0,0,0,1,.09l0-.8a4.74,4.74,0,0,1-2.72-.79l-.4.73a4.27,4.27,0,0,0,1.24.59Zm1.87,5.5-7.16.89.1.81,7.16-.89-.1-.81Zm-9.18,3.29a1,1,0,0,0,1.22.93l9.39-1.16-.1-.82L128.08,78a.49.49,0,0,1-.62-.46c-.06-.51-.11-1-.14-1.61l-.78.28.21,1.7Z" transform="translate(-22.23 -22.64)"/><path class="cls-9" d="M137.32,81.58l-.48-.62a13.58,13.58,0,0,1-2.14,1.78l.53.63a14.23,14.23,0,0,0,2.09-1.8Zm-11,5.8-.25,2.71.82.28c0-.32,0-.76.07-1.33s.08-1.15.13-1.71c.08-.91.16-1.67.23-2.27a4.34,4.34,0,0,1,.42-1.55,2.64,2.64,0,0,1,.81-.84,2,2,0,0,0,.29-.25l4.34.39.22-2.43-.77-.07L132.55,82,129,81.64a4.61,4.61,0,0,0-1.65-1.82l-.63.58c1,.75,1.52,1.26,1.5,1.55a.64.64,0,0,1-.33.43,2.67,2.67,0,0,0-1,1.14,7.6,7.6,0,0,0-.37,1.8c-.08.74-.15,1.44-.21,2.06Zm8.51-2.06-.16,1.79L133.2,87l.3-3.32-.77-.07-.64,7.11.77.07.27-3,1.51.14-.22,2.38.78.07.22-2.38,1.39.13.07-.8-1.39-.13.13-1.47c.3.14.62.28,1,.4l.23-.74a8.4,8.4,0,0,1-2.56-1.47l-.49.66a8.81,8.81,0,0,0,1.11.77Zm-3.16-.82-3.26-.3L128,89.4l3.26.3.47-5.2Zm-2.88,4.16.32-3.58,1.71.15-.32,3.58-1.71-.15Z" transform="translate(-22.23 -22.64)"/><path class="cls-9" d="M108.9,118.39l-.29.68c.36.12.73.23,1.08.37-.33.55-.67,1.1-1,1.64l-1.31-1.9a18,18,0,0,0,2.21-2.61l-.75-.29a18.89,18.89,0,0,1-2.45,2.84l1.53,2.22a.62.62,0,0,1,0,.74l.61.5c.73-1,1.35-2,1.85-2.88.36.15.69.3,1,.45l.27-.71a21.12,21.12,0,0,0-2.74-1.06Zm2.68-2.2a5,5,0,0,1,.42,1.47,3.68,3.68,0,0,1-.27,1.54l.78.25a4.54,4.54,0,0,0,.28-1.91,6.74,6.74,0,0,0-.56-1.81l1.17-.81a11.11,11.11,0,0,1,1,1.6.56.56,0,0,1-.21.7c-.22.15-.5.32-.83.52l.66.49c.26-.15.5-.29.69-.42a1.11,1.11,0,0,0,.53-1.24,15.12,15.12,0,0,0-1.6-2.75l-3.68,2.54.45.65,1.19-.82Zm3.93,1.73-6.09,4.21,2,3,.7-.48-1.6-2.32,4.68-3.23,1.52,2.21.71-.49-2-2.84Zm-.56,4.48v.77a22.67,22.67,0,0,1,4.39-1.06l0-.85a25.25,25.25,0,0,0-4.38,1.14Zm-1.86-1.07a3.44,3.44,0,0,1,.2,2.58,8.54,8.54,0,0,1-2.17,2.94l.69.45a8.71,8.71,0,0,0,2.33-3.34,4.12,4.12,0,0,0-.32-3l-.73.4Z" transform="translate(-22.23 -22.64)"/><path class="cls-9" d="M117.85,114.58a7,7,0,0,1-.36,3.74l.86.13a10.58,10.58,0,0,0,.38-2.3l1.14-1.37a7.71,7.71,0,0,1-.47,4.32h.83a7.88,7.88,0,0,0,.2-5l1-1.18a7.08,7.08,0,0,1,0,5.8l.84.08a7.75,7.75,0,0,0-.32-6.53l.72-.86a10.88,10.88,0,0,1,2,2.16,1.1,1.1,0,0,1-.21,1.29q-.4.48-.88,1l.74.33,1-1.16a1.61,1.61,0,0,0,.41-1.22,3.5,3.5,0,0,0-.88-1.44,29.57,29.57,0,0,0-2.19-2.11l-4,4.75a7,7,0,0,0-.25-1.18l2.94-3.52-3.15-2.63-4.58,5.49,3.15,2.63,1-1.25Zm2.47-4.07-3.52,4.22-.77-.64,3.52-4.22.77.64Zm-4.81,3.14-.76-.64,3.52-4.22.76.64-3.52,4.22Z" transform="translate(-22.23 -22.64)"/><path class="cls-9" d="M54.59,120.58l-.4.68,1.7,1-2.7,4.61-1.88-1.1-.4.67,9,5.3.4-.67-1.89-1.11,2.7-4.61,1.7,1,.4-.68-1.7-1,.54-.93-.73-.43-.54.93L57,122l.54-.93-.73-.43-.54.93-1.7-1Zm-.67,6.72.67-1.15,3.78,2.22-.67,1.15-3.78-2.22Zm1-1.77.66-1.12,3.78,2.22-.66,1.12L55,125.53Zm1-1.74.64-1.1,3.78,2.22-.64,1.1L56,123.79Zm-2.08,4.73a15,15,0,0,1-3.88-.24l.11.85a14.76,14.76,0,0,0,4,.15l-.24-.76Zm2.64,1.59-.68.33A16.91,16.91,0,0,1,58,133.75l.76-.38a18.67,18.67,0,0,0-2.22-3.27Z" transform="translate(-22.23 -22.64)"/><path class="cls-9" d="M65.05,125.07a13.44,13.44,0,0,1-3.44,4.31l.1.91a15.67,15.67,0,0,0,1.5-1.3L62,135.49l.81.15,1.45-7.83a15.65,15.65,0,0,0,1.46-2.26l-.68-.48Zm4.53,11.57a1.42,1.42,0,0,0,1.19-.17,5.22,5.22,0,0,0,.81-2.12l-.73-.41a5.41,5.41,0,0,1-.57,1.75.81.81,0,0,1-.69.13l-3.6-.67c-.39-.07-.54-.29-.47-.65l.88-4.78,1.81-.22-.8,4.34.83.15.85-4.6,1.78-.22c-.31,1.64-.51,2.59-.61,2.83a.45.45,0,0,1-.52.33l-.59-.13.09.85.18,0c.8.15,1.3,0,1.51-.52a34.23,34.23,0,0,0,1-4.38l-2.66.34.47-2.54-.83-.15-.52,2.8-1.81.23.42-2.28-.83-.15L65.68,129l-1.16.15-.15.84,1.15-.14-.86,4.64a1.08,1.08,0,0,0,1,1.44l3.95.73Z" transform="translate(-22.23 -22.64)"/><path class="cls-9" d="M77.67,127.27v.83l5.58-.1v-.83l-5.58.1Zm-.26,3v.83l3.67-.06.08,4.88c0,.3-.19.46-.56.46s-1,0-1.6,0l.19.82,1.71,0c.75,0,1.13-.36,1.11-1L81.94,131l1.89,0v-.83l-6.41.11Zm-1.59-3.58a8.08,8.08,0,0,1-2.58,3l.26.84A9.28,9.28,0,0,0,76.58,127l-.76-.34Zm.59,2.65a9.49,9.49,0,0,1-3.05,3.49l.26.84a14.86,14.86,0,0,0,1.51-1.24l.08,4.86H76l-.1-5.71a9.27,9.27,0,0,0,1.24-1.89l-.76-.34Z" transform="translate(-22.23 -22.64)"/><path class="cls-9" d="M87.33,125.81l2,9-3.39.76.18.8,10.09-2.26-.18-.8-3.41.76-2-9-.83.19,2,9-1.62.36-2-9-.83.19Zm6.12.81a25.19,25.19,0,0,1-.58,5.53l.8.1a26.94,26.94,0,0,0,.55-5.59l-.77,0Zm-8.08,1.78-.64.38a43.68,43.68,0,0,1,2.71,4.91l.71-.36a41.48,41.48,0,0,0-2.78-4.94Z" transform="translate(-22.23 -22.64)"/><path class="cls-9" d="M29.24,85.48l.31,1.85-1.92.32-.31-1.85,1.92-.32Zm1.06,1.73L30,85.35,31.93,85l.31,1.85-1.94.32Zm-3.73-1.29.31,1.86-2.6.43c-.41.07-.65,0-.69-.33s-.07-.57-.1-.89l-.7.32.15.92c.11.64.52.91,1.21.79l9-1.5-.56-3.36L27,85.08a10.21,10.21,0,0,1-4.1,0l-.47.72a10.89,10.89,0,0,0,4.11.15Zm1.87,4.18,0,.28a7.32,7.32,0,0,0-2.79,2,5.73,5.73,0,0,1-1.64-1.44l-.59.55A6.22,6.22,0,0,0,25.19,93a9.53,9.53,0,0,0-1.1,2.12l.77.3a9.12,9.12,0,0,1,1.05-2.06,8.53,8.53,0,0,0,3.21.62l.7-.12L29.17,90l3.49-.58.51,3.07a8.08,8.08,0,0,1-1.72.13.54.54,0,0,1-.39-.25,2.62,2.62,0,0,1-.16-.6c-.05-.32-.08-.58-.12-.77l-.68.34.16.93c.12.72.43,1.11.93,1.17a12.29,12.29,0,0,0,2.86-.27l-.78-4.66L23.21,90.16l.13.78,5.1-.85Zm.17,1L29,93.27a7.93,7.93,0,0,1-2.55-.54,6.44,6.44,0,0,1,2.19-1.64Z" transform="translate(-22.23 -22.64)"/><path class="cls-9" d="M35.47,95.25a6.33,6.33,0,0,1-3.8-1.54l-.44.73a9.86,9.86,0,0,0,1.55.95,12.06,12.06,0,0,0-.54,2.18,19,19,0,0,1-2.7-3.72l-.59.65a18.83,18.83,0,0,0,3.18,4.09,14.65,14.65,0,0,0,.54,5.1l.87.07a15.08,15.08,0,0,1-.64-4.49A10.2,10.2,0,0,0,36,101l.63-.25L34.69,96a7,7,0,0,0,1,.08l-.21-.83Zm-2.52,3a11,11,0,0,1,.56-2.55l.23.07L35.4,99.9A10.48,10.48,0,0,1,33,98.25Zm-1.88,0a6.11,6.11,0,0,1-1.29.37l-1.38-3.44-.7.28L29,98.67a3.67,3.67,0,0,1-.75-.09,7,7,0,0,1-3.38-2.72l-.43.78c1.43,1.74,2.75,2.68,3.94,2.84a4.81,4.81,0,0,0,1,0l1.29,3.2a5.56,5.56,0,0,1-2.13.52c-.33-.07-.63-.41-.9-1.06l-.46-1.3-.62.48c.18.51.33.94.47,1.28A2.24,2.24,0,0,0,28.16,104c.48.17,1.64-.11,3.48-.82l-1.53-3.81A8.05,8.05,0,0,0,31.39,99l-.31-.77Z" transform="translate(-22.23 -22.64)"/><path class="cls-9" d="M39.23,104.57l-.68.47,3.14,4.62.68-.47-3.14-4.62ZM36.61,106l-.68.47,2.07,3-4,2.75c-.25.17-.49.09-.7-.22s-.56-.87-.85-1.35l-.59.61,1,1.42c.42.62.92.75,1.48.36l4.21-2.87,1.06,1.56.68-.47L36.61,106Zm2.12-3.29a8.09,8.09,0,0,1-3.91-.53l-.56.67a9.28,9.28,0,0,0,4.61.67l-.14-.82Zm-1.89,1.95a9.49,9.49,0,0,1-4.6-.64l-.56.67a14.86,14.86,0,0,0,1.86.58l-4,2.74.47.68,4.73-3.22a9.27,9.27,0,0,0,2.26,0l-.14-.82Z" transform="translate(-22.23 -22.64)"/><path class="cls-9" d="M44.88,110.72l-6.33,6.78L36,115.13l-.56.6L43,122.78l.56-.6L41,119.8,47.33,113l-.62-.58-6.33,6.78-1.21-1.13,6.33-6.78-.62-.58Zm2.79,5.51a25.2,25.2,0,0,1-4.9,2.64l.37.71a27,27,0,0,0,4.93-2.7l-.4-.66Zm-6-5.66-.68-.32a43.7,43.7,0,0,1-2.53,5l.7.38a41.5,41.5,0,0,0,2.51-5.08Z" transform="translate(-22.23 -22.64)"/></svg>