<?xml version="1.0" encoding="UTF-8"?>
<svg width="172px" height="86px" viewBox="0 0 172 86" version="1.1" xmlns="http://www.w3.org/2000/svg" xmlns:xlink="http://www.w3.org/1999/xlink">
    <!-- Generator: Sketch 53.2 (72643) - https://sketchapp.com -->
    <title>分组 41</title>
    <desc>Created with Sketch.</desc>
    <defs>
        <path d="M69.9263158,0 C106.880708,0 137.158413,29.6777669 139.852632,67.3282443 L0,67.3282443 C2.6942189,29.6777669 32.971924,0 69.9263158,0 Z" id="path-1"></path>
        <linearGradient x1="6.87023341%" y1="10.9059792%" x2="69.7041257%" y2="61.4533712%" id="linearGradient-3">
            <stop stop-color="#0C95EB" offset="0%"></stop>
            <stop stop-color="#055CD2" offset="100%"></stop>
        </linearGradient>
        <filter x="-52.8%" y="-52.8%" width="205.5%" height="205.5%" filterUnits="objectBoundingBox" id="filter-4">
            <feGaussianBlur stdDeviation="5.62692096" in="SourceGraphic"></feGaussianBlur>
        </filter>
    </defs>
    <g id="Page-1" stroke="none" stroke-width="1" fill="none" fill-rule="evenodd">
        <g id="分组-41" transform="translate(-11.000000, -13.000000)">
            <g id="未标题-1-2-copy-2" fill-rule="nonzero">
                <g id="未标题-1" transform="translate(92.166785, 63.045728) rotate(81.000000) translate(-92.166785, -63.045728) translate(42.666785, -21.954272)">
                    <path d="M9.73630721,46.9983631 C3.80082492,58.7556997 0.427421313,72.1123799 0.427421313,86.247119 C0.427421313,90.7425713 0.769031805,95.194798 1.40955148,99.4741227 L85.4030311,86.0309915 L9.73630721,46.9983631 Z" id="路径" fill="#53AFFF"></path>
                    <path d="M98.2211874,1.5132394 C93.9900627,0.866859471 89.1594866,0.348170262 84.7591169,0.348170262 C70.9233392,0.348170262 57.8491639,3.75243788 46.3405048,9.74222522 L84.5475607,86.1012407 C89.4887662,56.3744946 93.1660051,33.7386153 95.5792773,18.1936029 C96.0901823,14.9026254 96.970819,9.34250425 98.2211874,1.5132394 Z" id="路径" fill="#B2DFFF"></path>
                    <path d="M46.3405048,9.74222522 C42.5077128,11.7169022 38.9178937,13.8995313 35.2980346,16.5181246 C24.0125917,24.7602545 15.6132548,35.2790847 9.73630721,46.9983631 C21.1383565,53.1383229 29.337869,57.495859 34.3348448,60.0709713 C48.990236,67.6233951 60.9054002,73.3675449 69.7253555,77.9127691 C73.1094951,79.6567319 78.1857044,82.272676 84.9539835,85.7606014 L46.3405048,9.74222522 Z" id="路径" fill="#8ACEFF"></path>
                    <path d="M1.4039414,99.2824762 C2.08483467,103.560936 3.10617459,107.839395 4.46796114,112.07507 C8.76609994,125.381078 16.000591,136.890134 25.235206,146.131607 L85.1112585,85.9764675 L1.4039414,99.2824762 Z" id="路径" fill="#3881FF"></path>
                    <path d="M25.1178046,145.959981 C28.1660308,149.013746 31.4682758,151.895469 35.0245397,154.519126 C46.2437054,162.777196 58.7329654,167.852469 71.5609172,169.873975 L84.7275607,85.4008013 L25.1178046,145.959981 Z" id="路径" fill="#2C6DFF"></path>
                </g>
            </g>
            <g id="合并形状-copy" transform="translate(26.863158, 30.778626)">
                <mask id="mask-2" fill="white">
                    <use xlink:href="#path-1"></use>
                </mask>
                <use id="Mask" fill="#10206E" xlink:href="#path-1"></use>
                <path d="M72.553985,59.1377503 C71.9343265,59.762458 71.2083868,60.2822108 70.4054136,60.6678571 C70.6580214,61.3503028 70.8197141,62.0793803 70.8751375,62.8391873 C71.4973965,62.6645905 72.151987,62.5714286 72.8275862,62.5714286 C72.9349905,62.5714286 73.0418639,62.5737831 73.1481608,62.578445 C73.2316522,61.7896049 73.4299752,61.0365393 73.7254446,60.3375651 C73.2936124,59.9835027 72.9005667,59.5809138 72.553985,59.1377503 Z M73.0584337,48.8513363 C74.4078313,47.4433149 76.2780205,46.5714286 78.3448276,46.5714286 C82.4583968,46.5714286 85.7931034,50.0252319 85.7931034,54.2857143 C85.7931034,55.3848958 85.5711413,56.4303837 85.1711071,57.3767206 C86.8943962,58.7896582 88,60.9753898 88,63.4285714 C88,67.6890538 84.6652933,71.1428571 80.5517241,71.1428571 C80.4443198,71.1428571 80.3374464,71.1405026 80.2311495,71.1358407 C79.8225539,74.9963187 76.6637481,78 72.8275862,78 C68.905477,78 65.6914156,74.860219 65.4007246,70.8750984 C64.7784655,71.0496953 64.1238751,71.1428571 63.4482759,71.1428571 C59.3347067,71.1428571 56,67.6890538 56,63.4285714 C56,60.5027014 57.5727155,57.9572776 59.8903508,56.6496598 C59.5165294,55.7448156 59.3103448,54.7535503 59.3103448,53.7142857 C59.3103448,49.4538034 62.7754905,46 67.0499642,46 C69.4748855,46 71.6393387,47.1115464 73.0584337,48.8513363 Z" id="合并形状" fill="url(#linearGradient-3)" opacity="0.5" filter="url(#filter-4)" mask="url(#mask-2)"></path>
            </g>
            <text id="优-copy" transform="translate(42.763284, 81.995517) rotate(-75.000000) translate(-42.763284, -81.995517) " font-family="PingFangSC-Regular, PingFang SC" font-size="12" font-weight="normal" fill="#B2DFFF">
                <tspan x="36.7632838" y="86.4955168">优</tspan>
            </text>
            <text id="良-copy" transform="translate(64.446152, 55.361216) rotate(-30.000000) translate(-64.446152, -55.361216) " font-family="PingFangSC-Regular, PingFang SC" font-size="12" font-weight="normal" fill="#B2DFFF">
                <tspan x="58.4461524" y="59.8612159">良</tspan>
            </text>
            <text id="中-copy" transform="translate(98.000000, 44.500000) rotate(-360.000000) translate(-98.000000, -44.500000) " font-family="PingFangSC-Regular, PingFang SC" font-size="12" font-weight="normal" fill="#B2DFFF">
                <tspan x="92" y="49">中</tspan>
            </text>
            <text id="差-copy" transform="translate(131.446152, 56.361216) rotate(-330.000000) translate(-131.446152, -56.361216) " font-family="PingFangSC-Regular, PingFang SC" font-size="12" font-weight="normal" fill="#B2DFFF">
                <tspan x="125.446152" y="60.8612159">差</tspan>
            </text>
            <text id="危-copy" transform="translate(151.763284, 82.995517) rotate(-285.000000) translate(-151.763284, -82.995517) " font-family="PingFangSC-Regular, PingFang SC" font-size="12" font-weight="normal" fill="#B2DFFF">
                <tspan x="145.763284" y="87.4955168">危</tspan>
            </text>
            <path d="" id="路径-18-copy-2" stroke="#65A3E7" stroke-width="0.76"></path>
        </g>
    </g>
</svg>