<svg xmlns="http://www.w3.org/2000/svg" xmlns:xlink="http://www.w3.org/1999/xlink" viewBox="0 0 271.07 193.6"><defs><style>.cls-1,.cls-2,.cls-3,.cls-5{fill:none;stroke-miterlimit:10;}.cls-1{stroke:#07c0f3;}.cls-2{stroke:#05a3ed;}.cls-3{stroke:#006be1;}.cls-4{fill:#79c7ff;}.cls-5{stroke:aqua;opacity:0.47;}.cls-6,.cls-9{fill:#2649f2;}.cls-6{opacity:0.73;}.cls-7{fill:#4190ff;}.cls-8{fill:#2664ff;}.cls-10{opacity:0.38;fill:url(#linear-gradient);}.cls-11{font-size:36px;fill:#fff;font-family:FZLTDHK--GBK1-0, FZLanTingHei-EB-GBK;}</style><linearGradient id="linear-gradient" x1="135.17" y1="91.93" x2="135.17" y2="2.02" gradientUnits="userSpaceOnUse"><stop offset="0" stop-color="#6ce1f5"/><stop offset="0.37" stop-color="#6ce1f5" stop-opacity="0.62"/><stop offset="0.8" stop-color="#6ce1f5" stop-opacity="0.18"/><stop offset="1" stop-color="#6ce1f5" stop-opacity="0"/></linearGradient></defs><title>资源 1</title><g id="图层_2" data-name="图层 2"><g id="图层_1-2" data-name="图层 1"><polygon class="cls-1" points="2.06 134.56 135.53 167.15 269 134.56 135.53 100.41 2.06 134.56"/><polygon class="cls-2" points="2.06 148.19 135.53 180.78 269 148.19 135.53 114.05 2.06 148.19"/><polygon class="cls-3" points="2.06 160.49 135.53 193.09 269 160.49 135.53 126.35 2.06 160.49"/><polygon class="cls-4" points="7.5 119.55 135.53 150.81 263.57 119.55 135.53 86.8 7.5 119.55"/><polygon class="cls-5" points="39.57 119.36 135.53 142.8 231.5 119.36 135.53 94.81 39.57 119.36"/><polygon class="cls-5" points="61.95 119.23 135.53 137.2 209.11 119.23 135.53 100.41 61.95 119.23"/><polygon class="cls-5" points="86.94 119.09 135.53 130.96 184.13 119.09 135.53 106.66 86.94 119.09"/><polygon class="cls-5" points="105.35 118.98 135.53 126.35 165.71 118.98 135.53 111.26 105.35 118.98"/><polygon class="cls-6" points="7.5 119.55 7.5 131.46 135.53 162.73 135.53 150.81 7.5 119.55"/><polygon class="cls-6" points="263.57 119.55 263.57 131.46 135.53 162.73 135.53 150.81 263.57 119.55"/><polygon class="cls-7" points="34.77 103.26 135.53 127.87 236.29 103.26 135.53 77.49 34.77 103.26"/><polygon class="cls-5" points="60.01 103.11 135.53 121.56 211.05 103.11 135.53 83.8 60.01 103.11"/><polygon class="cls-5" points="77.63 103.01 135.53 117.15 193.44 103.01 135.53 88.2 77.63 103.01"/><polygon class="cls-5" points="97.29 102.9 135.53 112.24 173.78 102.9 135.53 93.11 97.29 102.9"/><polygon class="cls-5" points="111.78 102.81 135.53 108.61 159.28 102.81 135.53 96.74 111.78 102.81"/><polygon class="cls-6" points="34.77 103.26 34.77 112.64 135.53 137.24 135.53 127.87 34.77 103.26"/><polygon class="cls-6" points="236.29 103.26 236.29 112.64 135.53 137.24 135.53 127.87 236.29 103.26"/><polygon class="cls-8" points="71.94 92.6 135.53 108.13 199.13 92.6 135.53 76.34 71.94 92.6"/><polygon class="cls-5" points="87.87 92.51 135.53 104.15 183.2 92.51 135.53 80.32 87.87 92.51"/><polygon class="cls-5" points="98.99 92.45 135.53 101.37 172.08 92.45 135.53 83.1 98.99 92.45"/><polygon class="cls-5" points="111.4 92.37 135.53 98.27 159.67 92.37 135.53 86.2 111.4 92.37"/><polygon class="cls-5" points="120.54 92.32 135.53 95.98 150.52 92.32 135.53 88.49 120.54 92.32"/><polygon class="cls-9" points="71.94 92.6 71.94 98.52 135.53 114.05 135.53 108.13 71.94 92.6"/><polygon class="cls-9" points="199.13 92.6 199.13 98.52 135.53 114.05 135.53 108.13 199.13 92.6"/><polygon class="cls-10" points="71.6 98.38 135.19 113.91 198.78 98.38 217.95 0 52.39 0 71.6 98.38"/><text class="cls-11" transform="translate(90.63 63.95)">GDP</text></g></g></svg>