<?xml version="1.0" encoding="UTF-8"?>
<svg width="329px" height="181px" viewBox="0 0 329 181" version="1.1" xmlns="http://www.w3.org/2000/svg" xmlns:xlink="http://www.w3.org/1999/xlink">
    <!-- Generator: Sketch 53.2 (72643) - https://sketchapp.com -->
    <title>分组 19</title>
    <desc>Created with Sketch.</desc>
    <g id="天津港大屏" stroke="none" stroke-width="1" fill="none" fill-rule="evenodd">
        <g id="系统首页-copy-9" transform="translate(-682.000000, -728.000000)" fill="#6F78AF">
            <g id="分组-19" transform="translate(682.874959, 728.397633)">
                <g id="分组-18">
                    <path d="M21.892119,3.27798534 L20.6502227,3.27798534 L20.6502227,3.35093349 C10.9328894,4.21872608 3.2053042,12.269689 2.96506716,22.2629335 C2.95416346,22.7120594 2.95997087,23.1571557 2.97964494,23.599289 L2.97964494,171.825662 L15.9520894,171.825662 L16.1988449,24.9884446 C16.2662227,20.3969779 19.7434968,16.5749927 24.308119,16.0754372 L316.703641,16.0810076 L320.070575,16.1083261 L320.061034,16.0824298 L320.181449,16.0824298 L320.186545,3.28379275 L22.9069338,3.27543719 L22.8682968,3.27543719 C22.7127412,3.27176312 22.5574227,3.26968904 22.4027561,3.26968904 C22.2303116,3.27176312 22.0613635,3.27383719 21.892119,3.27798534 Z" id="路径" opacity="0.399158296"></path>
                    <path d="M1.36112608,172.807648 L17.7194668,172.807648 C17.9905187,172.807648 18.2104298,172.587737 18.2104298,172.316685 C18.2104298,172.045574 17.9905187,171.825662 17.7194668,171.825662 L1.36112608,171.825662 C1.09007423,171.825662 0.870163119,172.045574 0.870163119,172.316685 C0.870163119,172.587737 1.09007423,172.807648 1.36112608,172.807648 Z" id="路径"></path>
                    <path d="M320.491287,1 C320.220235,1 320.000324,1.21991111 320.000324,1.49096296 L320.000324,17.8555259 C319.993806,18.0352 320.085954,18.2036741 320.240324,18.2953481 C320.394991,18.3870222 320.58711,18.3870222 320.74148,18.2953481 C320.89591,18.2036741 320.988058,18.0352 320.981539,17.8555259 L320.981539,1.49096296 C320.981539,1.22014815 320.762102,1.00047407 320.491287,1 Z" id="路径"></path>
                    <path d="M17.2830816,174.662285 L2.56320016,174.662285 C1.14743719,174.662285 1.55847223e-07,175.809722 1.55847223e-07,177.225425 C-0.00023688119,177.905307 0.269926082,178.557396 0.750459415,179.038166 C1.23122979,179.518996 1.88331867,179.7891 2.56320016,179.7891 L17.2849779,179.7891 C18.7004446,179.7891 19.8481779,178.641662 19.8481779,177.2259 C19.8483557,176.54584 19.578015,175.893277 19.0970076,175.412507 C18.6157631,174.931677 17.9632002,174.661811 17.2830816,174.662285 Z" id="路径"></path>
                    <path d="M325.562489,1.55711463e-07 C324.147259,1.55711463e-07 323,1.14720016 323,2.56248904 L323,17.2919113 C323,18.2076446 323.488415,19.053689 324.281481,19.5113483 C325.074311,19.9691853 326.051378,19.9691853 326.844207,19.5113483 C327.637274,19.053689 328.125689,18.2076446 328.125689,17.2919113 L328.125689,2.56503719 C328.1264,1.88497793 327.856474,1.23241497 327.375941,0.751170526 C326.89517,0.270163119 326.242607,-0.000236881326 325.562489,1.55711463e-07 Z" id="路径"></path>
                </g>
            </g>
        </g>
    </g>
</svg>