<?xml version="1.0" encoding="UTF-8"?>
<svg width="22px" height="26px" viewBox="0 0 22 26" version="1.1" xmlns="http://www.w3.org/2000/svg" xmlns:xlink="http://www.w3.org/1999/xlink">
    <!-- Generator: Sketch 53.2 (72643) - https://sketchapp.com -->
    <title>anquan 2 copy</title>
    <desc>Created with Sketch.</desc>
    <g id="Page-1" stroke="none" stroke-width="1" fill="none" fill-rule="evenodd">
        <g id="主屏最新" transform="translate(-842.000000, -199.000000)" fill-rule="nonzero">
            <g id="anquan-2-copy" transform="translate(842.000000, 199.000000)">
                <g id="anquan">
                    <path d="M16.989728,13.226601 L5.0175073,13.226601 L5.0175073,11.7300697 C5.0175073,11.1790757 5.46419095,10.7323921 6.01518495,10.7323921 L15.9920504,10.7323921 C16.5430444,10.7323921 16.989728,11.1790757 16.989728,11.7300697 L16.989728,13.226601 Z" id="路径" fill="#00F0FF"></path>
                    <path d="M11.003484,25.9469982 C10.5996415,25.9469982 10.1952941,25.8249809 9.85039548,25.5806493 L4.74551604,21.9633289 C1.69012274,19.5655573 0.0289112041,16.1757231 0.0289112041,12.3893255 L0.0289112041,5.52269726 C0.0290001372,5.13725065 0.251068143,4.78632051 0.599364968,4.62121927 L9.88937447,0.216386822 C9.92416064,0.19972706 9.95995076,0.185250266 9.99653693,0.173040527 C10.6439683,-0.0461864997 11.3586026,-0.046661856 12.0070144,0.173040527 C12.0435572,0.185221471 12.0795949,0.199838569 12.1141768,0.216386822 L21.4075732,4.62121927 C21.7559101,4.78627522 21.9779962,5.13723381 21.978027,5.52269726 L21.978027,12.3893552 C21.978027,16.1762282 20.3168452,19.5658246 17.3008765,21.9341243 L12.1570478,25.5804116 M2.02429617,6.15378829 L2.02429617,12.3893255 C2.02429617,15.5502175 3.41461569,18.3825215 5.93856391,20.3647154 L11.003484,23.952356 L16.1078583,20.3352435 C18.5928276,18.3827295 19.9826717,15.5504552 19.9826717,12.3893255 L19.9826717,6.15378829 L11.3201287,2.04807196 C11.1130826,1.98814772 10.8894883,1.98814772 10.6834226,2.04807196 L2.02429617,6.15378829 Z" id="形状" fill="#0097FF"></path>
                    <path d="M11.003484,17.7545797 C10.4525197,17.7545797 10.0058063,17.3078664 10.0058063,16.7569021 L10.0058063,7.20215048 C10.0058063,6.6511862 10.4525197,6.20447286 11.003484,6.20447283 C11.5544482,6.2044728 12.0011616,6.65118618 12.0011616,7.20215048 L12.0011616,16.7569021 C12.0011616,17.3078664 11.5544482,17.7545797 11.003484,17.7545797 Z" id="路径" fill="#0097FF"></path>
                </g>
            </g>
        </g>
    </g>
</svg>