<?xml version="1.0" encoding="UTF-8"?>
<svg width="91px" height="56px" viewBox="0 0 91 56" version="1.1" xmlns="http://www.w3.org/2000/svg" xmlns:xlink="http://www.w3.org/1999/xlink">
    <!-- Generator: Sketch 53.2 (72643) - https://sketchapp.com -->
    <title>分组 14</title>
    <desc>Created with Sketch.</desc>
    <g id="Page-1" stroke="none" stroke-width="1" fill="none" fill-rule="evenodd">
        <g id="劳动关系最新-copy-6" transform="translate(-703.000000, -932.000000)">
            <g id="分组-14" transform="translate(704.000000, 933.000000)">
                <g id="分组-6">
                    <g id="xiaoshouqushi" transform="translate(28.000000, 23.000000)" fill="#18F0FF" fill-rule="nonzero">
                        <path d="M4.77358491,19.3018868 L1.66037736,19.3018868 C0.622641509,19.3018868 0,20.1984906 0,21.0950943 L0,28.4920755 C0,29.6128302 0.622641509,30.509434 1.66037736,30.509434 L4.77358491,30.509434 C5.60377358,30.509434 6.22641509,29.6128302 6.22641509,28.7162264 L6.22641509,21.0950943 C6.22641509,20.1984906 5.60377358,19.3018868 4.77358491,19.3018868 Z M4.1509434,27.5954717 C4.1509434,28.0437736 3.73584906,28.2679245 3.11320755,28.2679245 C2.49056604,28.2679245 2.0754717,28.0437736 2.0754717,27.5954717 L2.0754717,22.2158491 C2.0754717,21.7675472 2.49056604,21.5433962 3.11320755,21.5433962 C3.73584906,21.5433962 4.1509434,21.7675472 4.1509434,22.2158491 L4.1509434,27.5954717 Z" id="形状"></path>
                        <path d="M13.7985393,13.0754717 L10.4844796,13.0754717 C9.37979306,13.0754717 8.71698113,13.9471698 8.71698113,14.8188679 L8.71698113,28.5481132 C8.71698113,29.6377358 9.37979306,30.509434 10.4844796,30.509434 L13.7985393,30.509434 C14.6822885,30.509434 15.5660377,29.6377358 15.5660377,28.7660377 L15.5660377,14.8188679 C15.3451004,13.9471698 14.6822885,13.0754717 13.7985393,13.0754717 Z M13.1357273,27.6764151 C13.1357273,28.1122642 12.6938527,28.3301887 12.0310408,28.3301887 C11.3682288,28.3301887 10.9263542,28.1122642 10.9263542,27.6764151 L10.9263542,15.9084906 C10.9263542,15.4726415 11.3682288,15.254717 12.0310408,15.254717 C12.6938527,15.254717 13.1357273,15.4726415 13.1357273,15.9084906 L13.1357273,27.6764151 Z" id="形状"></path>
                        <path d="M31.2325015,11.2075472 L27.9184419,11.2075472 C26.8137553,11.2075472 26.1509434,12.0654088 26.1509434,12.9232704 L26.1509434,28.5792453 C26.1509434,29.6515723 26.8137553,30.509434 27.9184419,30.509434 L31.2325015,30.509434 C32.1162508,30.509434 33,29.6515723 33,28.7937107 L33,12.9232704 C32.7790627,12.0654088 32.1162508,11.2075472 31.2325015,11.2075472 Z M30.5696896,27.7213836 C30.5696896,28.1503145 30.127815,28.3647799 29.465003,28.3647799 C28.8021911,28.3647799 28.3603165,28.1503145 28.3603165,27.7213836 L28.3603165,13.9955975 C28.3603165,13.5666667 28.8021911,13.3522013 29.465003,13.3522013 C30.127815,13.3522013 30.5696896,13.5666667 30.5696896,13.9955975 L30.5696896,27.7213836 Z" id="形状"></path>
                        <path d="M22.2075472,17.4339623 L19.0943396,17.4339623 C18.0566038,17.4339623 17.4339623,18.3056604 17.4339623,19.1773585 L17.4339623,28.5481132 C17.4339623,29.6377358 18.0566038,30.509434 19.0943396,30.509434 L22.2075472,30.509434 C23.0377358,30.509434 23.6603774,29.6377358 23.6603774,28.7660377 L23.6603774,19.1773585 C23.6603774,18.3056604 23.0377358,17.4339623 22.2075472,17.4339623 Z M21.5849057,27.6764151 C21.5849057,28.1122642 21.1698113,28.3301887 20.5471698,28.3301887 C19.9245283,28.3301887 19.509434,28.1122642 19.509434,27.6764151 L19.509434,20.2669811 C19.509434,19.8311321 19.9245283,19.6132075 20.5471698,19.6132075 C21.1698113,19.6132075 21.5849057,19.8311321 21.5849057,20.2669811 L21.5849057,27.6764151 Z" id="形状"></path>
                        <path d="M2.47589099,17.8929488 L12.2872117,9.38288776 L19.2641509,14.183435 C19.918239,15.0562618 20.7903564,14.4016417 20.7903564,14.183435 L30.8197065,3.49130707 L30.8197065,5.4551673 C30.8197065,6.10978738 31.2557652,6.54620076 31.9098532,6.54620076 C32.5639413,6.54620076 33,6.10978738 33,5.4551673 L33,1.09103346 C33,0.436413384 32.5639413,0 31.9098532,0 L27.5492662,0 C26.8951782,0 26.4591195,0.436413384 26.4591195,1.09103346 C26.4591195,1.74565354 26.8951782,2.18206692 27.5492662,2.18206692 L29.0754717,2.18206692 L19.918239,11.7831614 L12.9412998,6.98261415 C12.9412998,6.98261415 12.9412998,6.98261415 12.9412998,6.98261415 C12.5052411,6.54620076 11.851153,6.54620076 11.4150943,6.98261415 L0.949685535,16.1472952 C0.513626834,16.5837086 0.513626834,17.4565354 0.949685535,17.8929488 C1.38574423,18.1111554 2.03983229,18.1111554 2.47589099,17.8929488 Z" id="路径"></path>
                    </g>
                    <path d="M88.016693,54.3614408 C88.6609302,51.318768 89,48.1619185 89,44.9251184 C89,25.8662729 77.2442453,9.57936138 60.6537792,3.0515452 C55.6462084,1.08122671 50.1981763,1.42108547e-13 44.5,1.42108547e-13 C19.9233286,1.42108547e-13 0,20.1136606 0,44.9251184 C0,47.9731562 0.300675492,50.9502966 0.873716284,53.8279589" id="形状-copy" stroke="#18F0FF" opacity="0.300000012"></path>
                </g>
            </g>
        </g>
    </g>
</svg>