<?xml version="1.0" encoding="UTF-8"?>
<svg width="24px" height="24px" viewBox="0 0 24 24" version="1.1" xmlns="http://www.w3.org/2000/svg" xmlns:xlink="http://www.w3.org/1999/xlink">
    <!-- Generator: Sketch 53.2 (72643) - https://sketchapp.com -->
    <title>_gonggongfuwu</title>
    <desc>Created with Sketch.</desc>
    <g id="Page-1" stroke="none" stroke-width="1" fill="none" fill-rule="evenodd">
        <g id="主屏最新" transform="translate(-547.000000, -130.000000)" fill-rule="nonzero">
            <g id="_gonggongfuwu" transform="translate(547.000000, 130.000000)">
                <path d="M12.1278201,24 C12.0345869,24 11.9180455,23.9749478 11.8248123,23.9248434 C11.5917294,23.7995825 11.4285714,23.5240084 11.4285714,23.2484342 L11.4285714,0.75156575 C11.4285714,0.325678472 11.7315792,0 12.1278201,0 C12.5240609,0 12.8270687,0.325678499 12.8270687,0.75156575 L12.8270687,21.4697286 C15.041356,18.9394572 19.2834645,12.5762004 15.1812058,4.58455114 C14.9947395,4.20876827 15.1112809,3.7578288 15.4609052,3.55741127 C15.8105296,3.35699374 16.2300787,3.48225471 16.416545,3.85803758 C22.2203088,15.1816284 12.6639107,23.7244259 12.5706775,23.7995825 C12.4308278,23.9248434 12.2909781,24 12.1278201,24 Z" id="路径" fill="#00F0FF"></path>
                <path d="M1.14285714,11.1495431 L24,11.1495431 L24,12.5714286 L1.14285714,12.5714286 L1.14285714,11.1495431 Z M12.1896278,6.90758455 C10.4842507,6.90758455 8.60069998,6.64690552 6.66624246,5.91226468 C6.28444164,5.77007613 6.08081454,5.34351046 6.23353484,4.98803908 C6.38625518,4.6325677 6.84441618,4.44298297 7.226217,4.58517153 C13.7677378,7.02607502 19.6474706,3.56615357 19.7238307,3.54245546 C20.0801782,3.32917264 20.5383392,3.42396499 20.7674197,3.75573828 C20.9965001,4.08751157 20.8946866,4.51407724 20.5383391,4.72736006 C20.3601654,4.86954861 16.8985046,6.90758455 12.1896278,6.90758455 Z" id="形状" fill="#00F0FF"></path>
                <path d="M12,1.5 C17.8,1.5 22.5,6.20000001 22.5,12 C22.5,17.8 17.8,22.5 12,22.5 C6.20000001,22.5 1.5,17.8 1.5,12 C1.5,6.20000001 6.20000001,1.5 12,1.5 L12,1.5 Z M12,3.74700271e-16 C5.37500001,0 0,5.37500001 0,12 C0,18.625 5.37500001,24 12,24 C18.625,24 24,18.625 24,12 C24,5.37500001 18.625,0 12,3.74700271e-16 Z" id="形状" fill="#0097FF"></path>
            </g>
        </g>
    </g>
</svg>