<?xml version="1.0" encoding="UTF-8"?>
<svg width="22px" height="22px" viewBox="0 0 22 22" version="1.1" xmlns="http://www.w3.org/2000/svg" xmlns:xlink="http://www.w3.org/1999/xlink">
    <!-- Generator: Sketch 53.2 (72643) - https://sketchapp.com -->
    <title>guanxi</title>
    <desc>Created with Sketch.</desc>
    <g id="Page-1" stroke="none" stroke-width="1" fill="none" fill-rule="evenodd">
        <g id="主屏最新" transform="translate(-548.000000, -200.000000)" fill-rule="nonzero">
            <g id="guanxi" transform="translate(548.000000, 200.000000)">
                <path d="M4.21779141,15.1840491 L0.843558282,15.1840491 C0.377673907,15.1840491 0,14.8063752 0,14.3404908 L0,0.843558282 C0,0.377673907 0.377673907,0 0.843558282,0 L14.3404908,0 C14.8063752,0 15.1840491,0.377673907 15.1840491,0.843558282 L15.1840491,4.21779141 C15.1840491,4.68367579 14.8063752,5.06134969 14.3404908,5.06134969 C13.8746064,5.06134969 13.4969325,4.68367579 13.4969325,4.21779141 L13.4969325,1.68711656 L1.68711656,1.68711656 L1.68711656,13.4969325 L4.21779141,13.4969325 C4.68367579,13.4969325 5.06134969,13.8746064 5.06134969,14.3404908 C5.06134969,14.8063752 4.68367579,15.1840491 4.21779141,15.1840491 Z M14.3404908,15.1840491 L10.9662577,15.1840491 C10.5003733,15.1840491 10.1226994,14.8063752 10.1226994,14.3404908 C10.1226994,13.8746064 10.5003733,13.4969325 10.9662577,13.4969325 L13.4969325,13.4969325 L13.4969325,10.9662577 C13.4969325,10.5003733 13.8746064,10.1226994 14.3404908,10.1226994 C14.8063752,10.1226994 15.1840491,10.5003733 15.1840491,10.9662577 L15.1840491,14.3404908 C15.1840491,14.8063752 14.8063752,15.1840491 14.3404908,15.1840491 Z" id="形状" fill="#0097FF"></path>
                <path d="M21.0889571,21.9325153 L7.59202454,21.9325153 C7.12614017,21.9325153 6.74846626,21.5548414 6.74846626,21.0889571 L6.74846626,7.59202454 C6.74846626,7.12614017 7.12614017,6.74846626 7.59202454,6.74846626 L21.0889571,6.74846626 C21.5548414,6.74846626 21.9325153,7.12614017 21.9325153,7.59202454 L21.9325153,21.0889571 C21.9325153,21.5548414 21.5548414,21.9325153 21.0889571,21.9325153 Z M8.43558282,20.2453988 L20.2453988,20.2453988 L20.2453988,8.43558282 L8.43558282,8.43558282 L8.43558282,20.2453988 Z" id="形状" fill="#00F0FF"></path>
            </g>
        </g>
    </g>
</svg>