<?xml version="1.0" encoding="UTF-8"?>
<svg width="24px" height="22px" viewBox="0 0 24 22" version="1.1" xmlns="http://www.w3.org/2000/svg" xmlns:xlink="http://www.w3.org/1999/xlink">
    <!-- Generator: Sketch 53.2 (72643) - https://sketchapp.com -->
    <title>jiuyexinxi</title>
    <desc>Created with Sketch.</desc>
    <g id="Page-1" stroke="none" stroke-width="1" fill="none" fill-rule="evenodd">
        <g id="主屏最新" transform="translate(-842.000000, -131.000000)" fill-rule="nonzero">
            <g id="jiuyexinxi" transform="translate(842.000000, 131.000000)">
                <path d="M23.0973214,21.9991071 L0.857142857,21.9991071 C0.383035714,21.9991071 0,21.6160714 0,21.1419643 L0,8.5125 C0,8.12410714 0.2625,7.78392857 0.6375,7.68482143 C1.0125,7.58571429 1.40892857,7.75178571 1.60178571,8.09196429 C3.45535714,11.3571429 8.16428571,12.0428571 11.7883929,12.0428571 C14.4026786,12.0428571 16.7276786,11.64375 18.50625,10.8910714 C20.3785714,10.0982143 21.6589286,8.92767857 22.3098214,7.41428571 C22.4705357,7.03928571 22.8723214,6.83035714 23.2714286,6.91339286 C23.6705357,6.99642857 23.9544643,7.34732143 23.9544643,7.75178571 L23.9544643,21.1419643 C23.9544643,21.6160714 23.5714286,21.9991071 23.0973214,21.9991071 Z M1.71428571,20.2848214 L22.2401786,20.2848214 L22.2401786,10.48125 C22.1598214,10.5616071 22.0767857,10.6392857 21.99375,10.7142857 C21.2196429,11.4133929 20.2714286,12.0026786 19.1758929,12.46875 C17.1589286,13.3232143 14.6732143,13.7571429 11.7883929,13.7571429 C9.08035714,13.7571429 6.75267857,13.40625 4.87232143,12.7151786 C3.62678571,12.2571429 2.57142857,11.6491071 1.71428571,10.8964286 L1.71428571,20.2848214 L1.71428571,20.2848214 Z" id="形状" fill="#0097FF"></path>
                <path d="M1.71428571,8.5125 L0,8.5125 L0,4.32857143 C0,3.85446429 0.383035714,3.47142857 0.857142857,3.47142857 L23.0973214,3.47142857 C23.5714286,3.47142857 23.9544643,3.85446429 23.9544643,4.32857143 L23.9544643,7.75178571 L22.2401786,7.75178571 L22.2401786,5.18571429 L1.71428571,5.18571429 L1.71428571,8.5125 Z M11.8526786,15.4044643 C11.3785714,15.4044643 10.9955357,15.0214286 10.9955357,14.5473214 L10.9955357,10.9821429 C10.9955357,10.5080357 11.3785714,10.125 11.8526786,10.125 C12.3267857,10.125 12.7098214,10.5080357 12.7098214,10.9821429 L12.7098214,14.5446429 C12.7098214,15.0214286 12.3267857,15.4044643 11.8526786,15.4044643 Z" id="形状" fill="#00F0FF"></path>
                <path d="M16.7705357,5.18571429 L7.09821429,5.18571429 C6.44732143,5.18571429 5.91964286,4.65803571 5.91964286,4.00714286 L5.91964286,1.19464286 C5.91964286,0.54375 6.44732143,0.0160714286 7.09821429,0.0160714286 L16.7705357,0.0160714286 C17.4214286,0.0160714286 17.9491071,0.54375 17.9491071,1.19464286 L17.9491071,4.00714286 C17.9491071,4.65803571 17.4214286,5.18571429 16.7705357,5.18571429 Z M7.63392857,3.47142857 L16.2348214,3.47142857 L16.2348214,1.73035714 L7.63392857,1.73035714 L7.63392857,3.47142857 Z" id="形状" fill="#00F0FF"></path>
            </g>
        </g>
    </g>
</svg>