<?xml version="1.0" encoding="UTF-8"?>
<svg width="41px" height="38px" viewBox="0 0 41 38" version="1.1" xmlns="http://www.w3.org/2000/svg" xmlns:xlink="http://www.w3.org/1999/xlink">
    <!-- Generator: Sketch 53.2 (72643) - https://sketchapp.com -->
    <title>分组</title>
    <desc>Created with Sketch.</desc>
    <g id="Page-1" stroke="none" stroke-width="1" fill="none" fill-rule="evenodd">
        <g id="画板" transform="translate(-621.000000, -440.000000)">
            <g id="分组" transform="translate(623.000000, 442.000000)">
                <path d="M20.0010152,2.81820937 C21.5316928,1.08965462 23.7676274,1.77635684e-13 26.2580645,1.77635684e-13 C30.8723145,1.77635684e-13 34.6129032,3.7405887 34.6129032,8.35483871 C34.6129032,9.80698199 34.2424301,11.1725966 33.5908437,12.362323 C35.6583314,13.8832102 37,16.3333104 37,19.0967742 C37,23.7110242 33.2594113,27.4516129 28.6451613,27.4516129 C28.2150968,27.4516129 27.7926217,27.4191188 27.3800573,27.3564517 C26.8422759,31.4516094 23.3387049,34.6129032 19.0967742,34.6129032 C14.7643953,34.6129032 11.2021991,31.3153594 10.7831575,27.0932438 C10.0147071,27.3262965 9.19940749,27.4516129 8.35483871,27.4516129 C3.7405887,27.4516129 0,23.7110242 0,19.0967742 C0,15.548311 2.21216906,12.5165277 5.33263737,11.3052939 C4.97169956,10.3878746 4.77419355,9.39349018 4.77419355,8.35483871 C4.77419355,3.7405887 8.67220295,1.77635684e-13 13.4806412,1.77635684e-13 C16.075887,1.77635684e-13 18.4059198,1.08965462 20.0010152,2.81820937 Z" id="合并形状" stroke="#0097FF" stroke-width="2.8"></path>
                <circle id="椭圆形-copy-3" fill="#00F0FF" cx="19.6935484" cy="16.1129032" r="5"></circle>
            </g>
        </g>
    </g>
</svg>