<?xml version="1.0" encoding="UTF-8"?>
<svg width="91px" height="56px" viewBox="0 0 91 56" version="1.1" xmlns="http://www.w3.org/2000/svg" xmlns:xlink="http://www.w3.org/1999/xlink">
    <!-- Generator: Sketch 53.2 (72643) - https://sketchapp.com -->
    <title>分组 16</title>
    <desc>Created with Sketch.</desc>
    <g id="Page-1" stroke="none" stroke-width="1" fill="none" fill-rule="evenodd">
        <g id="劳动关系最新-copy-6" transform="translate(-862.000000, -932.000000)">
            <g id="分组-16" transform="translate(863.000000, 933.000000)">
                <g id="分组-9">
                    <g id="hangyepaiming" transform="translate(27.000000, 23.000000)" fill="#18F0FF" fill-rule="nonzero">
                        <path d="M33.46875,14.1625037 L27.375,14.1625037 L27.375,2.40669994 C27.375,1.11078456 26.25,-4.33900234e-08 24.9375,0 L10.40625,0 C9.09374999,0 7.96874999,1.1107846 7.96874999,2.40669994 L7.96874999,14.1625037 L2.43750001,14.1625037 C1.125,14.1625037 0,15.2732883 0,16.5692036 L0,28.3250074 C0,29.6209228 1.125,30.7317074 2.43750001,30.7317073 L17.0625,30.7317073 C17.4375,30.7317073 17.71875,30.6391419 18,30.5465766 C18.28125,30.6391419 18.5625,30.7317074 18.9375,30.7317073 L33.5625,30.7317073 C34.875,30.7317073 36,29.6209227 36,28.3250074 L36,16.5692036 C35.90625,15.2732882 34.875,14.1625036 33.46875,14.1625037 Z M10.40625,2.40669994 L25.03125,2.40669994 L25.03125,14.1625037 L10.40625,14.1625037 L10.40625,2.40669994 Z M2.43750001,16.5692036 L16.5,16.5692036 L16.5,28.3250074 L2.43750001,28.3250074 L2.43750001,16.5692036 Z M33.46875,28.3250074 L19.40625,28.3250074 L19.40625,16.5692036 L33.46875,16.5692036 L33.46875,28.3250074 Z" id="形状"></path>
                        <path d="M17.3553837,6.67800403 L17.3553837,7.56410829 L18.2034503,6.94383531 L18.2034503,11.8174088 L19.051517,11.8174088 L19.051517,6.14634146 L18.2034503,6.14634146 L17.3553837,6.67800403 Z M12.1727543,21.2101141 C12.1727543,20.767062 11.984295,20.3240099 11.7016062,20.0581785 C11.4189173,19.7923473 10.9477692,19.6151264 10.4766211,19.6151264 C10.0054729,19.6151265 9.62855443,19.7923473 9.34586556,20.0581785 C9.06317668,20.4126202 8.87471742,20.767062 8.87471746,21.2101141 L9.72278409,21.2101141 C9.72278409,20.9442828 9.8170137,20.767062 10.005473,20.5898411 C10.1939322,20.4126202 10.3823914,20.4126202 10.5708507,20.4126203 C10.8535396,20.4126203 11.0419989,20.5012307 11.1362285,20.6784516 C11.2304581,20.8556724 11.3246877,21.0328933 11.3246877,21.2101141 L11.3246877,21.4759454 C11.3246877,21.5645558 11.2304581,21.6531663 11.1362285,21.8303871 L8.7804878,24.6659208 L8.7804878,25.4634146 L12.1727543,25.4634146 L12.1727543,24.6659208 L9.91124331,24.6659208 L11.7958358,22.3620497 C12.0785247,21.9189975 12.1727543,21.6531662 12.1727543,21.2101141 L12.1727543,21.2101141 Z M26.4014277,24.5773103 C26.2129685,24.5773103 26.0245092,24.4886999 25.83605,24.4000895 C25.7418204,24.3114791 25.5533611,24.1342582 25.5533611,23.9570374 L24.7052945,23.9570374 C24.7995241,24.4000895 24.9879833,24.7545312 25.2706722,25.0203625 C25.5533611,25.2861938 25.9302796,25.3748042 26.3071981,25.3748042 C26.8725758,25.3748042 27.2494943,25.1975833 27.6264128,24.9317521 C28.0033313,24.6659208 28.097561,24.2228686 28.097561,23.6912061 C28.097561,23.4253748 28.0033314,23.2481539 27.9091017,22.9823226 C27.8148721,22.8051018 27.6264128,22.5392705 27.343724,22.4506601 C27.6264128,22.2734392 27.8148721,22.0962184 27.9091017,21.9189975 C28.0033313,21.7417766 28.0033313,21.4759454 28.0033313,21.2987245 C28.0033313,20.8556724 27.8148721,20.5012307 27.5321832,20.146789 C27.2494944,19.7923473 26.7783462,19.6151264 26.2129685,19.6151264 C25.83605,19.6151264 25.4591314,19.7923473 25.082213,20.0581785 C24.7995241,20.3240098 24.6110648,20.6784515 24.5168352,21.1215037 L25.3649018,21.1215037 C25.4591314,20.8556724 25.5533611,20.6784515 25.6475907,20.5898411 C25.83605,20.5012307 25.9302796,20.4126202 26.1187388,20.4126203 C26.4014277,20.4126203 26.589887,20.5012307 26.7783462,20.6784516 C26.9668055,20.8556724 27.0610351,21.0328933 27.0610351,21.2987245 C27.0610351,21.5645558 26.9668055,21.7417767 26.7783462,21.9189975 C26.5898869,22.0962184 26.4014277,22.1848288 26.1187388,22.1848288 L25.83605,22.1848288 L25.83605,22.8937122 L26.2129685,22.8937122 C26.4956573,22.8937122 26.6841166,22.9823226 26.8725758,23.1595435 C27.0610351,23.3367644 27.1552647,23.5139852 27.1552647,23.8684269 C27.1552647,24.1342582 27.0610351,24.4000895 26.8725758,24.4886999 C26.8725758,24.4886999 26.5898869,24.5773103 26.4014277,24.5773103 L26.4014277,24.5773103 Z" id="形状"></path>
                    </g>
                    <path d="M88.016693,54.3614408 C88.6609302,51.318768 89,48.1619185 89,44.9251184 C89,25.8662729 77.2442453,9.57936138 60.6537792,3.0515452 C55.6462084,1.08122671 50.1981763,1.42108547e-13 44.5,1.42108547e-13 C19.9233286,1.42108547e-13 0,20.1136606 0,44.9251184 C0,47.9731562 0.300675492,50.9502966 0.873716284,53.8279589" id="形状-copy-2" stroke="#18F0FF" opacity="0.300000012"></path>
                </g>
            </g>
        </g>
    </g>
</svg>