<?xml version="1.0" encoding="UTF-8"?>
<svg width="91px" height="56px" viewBox="0 0 91 56" version="1.1" xmlns="http://www.w3.org/2000/svg" xmlns:xlink="http://www.w3.org/1999/xlink">
    <!-- Generator: Sketch 53.2 (72643) - https://sketchapp.com -->
    <title>分组 5</title>
    <desc>Created with Sketch.</desc>
    <g id="Page-1" stroke="none" stroke-width="1" fill="none" fill-rule="evenodd">
        <g id="劳动关系最新-copy-6" transform="translate(-547.000000, -932.000000)">
            <g id="分组-5" transform="translate(548.000000, 933.000000)">
                <g id="chengshi" transform="translate(28.000000, 22.000000)" fill="#18F0FF" fill-rule="nonzero">
                    <path d="M31.7559,29.0035537 L31.1355,29.0035537 C31.1612407,28.8472075 31.174484,28.6889985 31.1751,28.5304783 L31.1751,11.1021759 C31.1746627,10.3045884 30.8624974,9.5398693 30.3073234,8.97636185 C29.7521495,8.41285441 28.9994779,8.09675294 28.215,8.09764323 L22.35585,8.09764323 C22.1993468,8.09889395 22.0431951,8.1129188 21.8889,8.13958256 L21.8889,3.00788777 C21.8898119,1.34825817 20.5677511,0.00185201403 18.9354,0 L5.11499999,0 C3.48458089,0.00184904946 2.16331865,1.34519051 2.16149999,3.00285507 L2.16149999,28.5304783 C2.16211597,28.6889985 2.17535927,28.8472075 2.2011,29.0035537 L1.24410001,29.0035537 C0.557002546,29.0035537 8.41451707e-17,29.5698642 0,30.2684435 C-8.41451707e-17,30.9670229 0.557002546,31.5333333 1.24410001,31.5333333 L31.7559,31.5333333 C32.4429975,31.5333333 33,30.9670229 33,30.2684435 C33,29.5698642 32.4429975,29.0035537 31.7559,29.0035537 Z M5.11499999,29.0035537 C4.85775362,29.0035554 4.648959,28.7920218 4.64804999,28.5304783 L4.64804999,3.00788777 C4.648959,2.74634427 4.85775362,2.53481066 5.11499999,2.5348123 L18.94035,2.5348123 C19.1975964,2.53481066 19.406391,2.74634427 19.4073,3.00788777 L19.4073,28.5304783 C19.406391,28.7920218 19.1975964,29.0035554 18.94035,29.0035537 L5.11499999,29.0035537 Z M22.3608,29.0035537 C22.1035536,29.0035554 21.894759,28.7920218 21.89385,28.5304783 L21.89385,11.1021759 C21.89385,10.839977 22.1029106,10.6274228 22.3608,10.6274228 L28.215,10.6274228 C28.3388428,10.6274228 28.4576134,10.6774413 28.5451835,10.7664748 C28.6327536,10.8555082 28.68195,10.9762635 28.68195,11.1021759 L28.68195,28.5304783 C28.681041,28.7920218 28.4722464,29.0035554 28.215,29.0035537 L22.3608,29.0035537 Z" id="形状"></path>
                    <path d="M17.0402598,5.86666668 L7.89307353,5.86666668 C7.20409456,5.86677321 6.64562376,6.42025052 6.64562376,7.10296255 C6.64562376,7.78567459 7.20409456,8.3391519 7.89307353,8.33925843 L17.0402598,8.33925843 C17.4860466,8.33932735 17.8980003,8.10370576 18.1209138,7.72116618 C18.3438273,7.3386266 18.3438273,6.86729851 18.1209138,6.48475893 C17.8980003,6.10221935 17.4860466,5.86659776 17.0402598,5.86666668 L17.0402598,5.86666668 Z M17.0402598,11.9645239 L7.89307353,11.9645239 C7.43679555,11.9480502 7.00787899,12.1798613 6.77480528,12.5689001 C6.54173157,12.9579389 6.54173157,13.4420611 6.77480528,13.8310999 C7.00787899,14.2201388 7.43679555,14.4519498 7.89307353,14.4354761 L17.0402598,14.4354761 C17.4965378,14.4519498 17.9254543,14.2201388 18.158528,13.8310999 C18.3916018,13.4420611 18.3916018,12.9579389 18.158528,12.5689001 C17.9254543,12.1798613 17.4965378,11.9480502 17.0402598,11.9645239 L17.0402598,11.9645239 Z M17.0402598,18.0607416 L7.89307353,18.0607416 C7.20401855,18.0607416 6.64542914,18.6142501 6.64542914,19.2970374 C6.64542914,19.9798248 7.20401855,20.5333333 7.89307353,20.5333333 L17.0402598,20.5333333 C17.7293148,20.5333333 18.2879042,19.9798248 18.2879042,19.2970374 C18.2879042,18.6142501 17.7293148,18.0607416 17.0402598,18.0607416 L17.0402598,18.0607416 Z" id="形状"></path>
                </g>
                <path d="M88.016693,54.3614408 C88.6609302,51.318768 89,48.1619185 89,44.9251184 C89,25.8662729 77.2442453,9.57936138 60.6537792,3.0515452 C55.6462084,1.08122671 50.1981763,1.42108547e-13 44.5,1.42108547e-13 C19.9233286,1.42108547e-13 0,20.1136606 0,44.9251184 C0,47.9731562 0.300675492,50.9502966 0.873716284,53.8279589" id="形状" stroke="#18F0FF" opacity="0.300000012"></path>
            </g>
        </g>
    </g>
</svg>