<?xml version="1.0" encoding="UTF-8"?>
<svg width="24px" height="20px" viewBox="0 0 24 20" version="1.1" xmlns="http://www.w3.org/2000/svg" xmlns:xlink="http://www.w3.org/1999/xlink">
    <!-- Generator: Sketch 53.2 (72643) - https://sketchapp.com -->
    <title>分组 48 copy 2</title>
    <desc>Created with Sketch.</desc>
    <g id="Page-1" stroke="none" stroke-width="1" fill="none" fill-rule="evenodd">
        <g id="主屏最新" transform="translate(-1133.000000, -132.000000)" fill-rule="nonzero">
            <g id="分组-48-copy-2" transform="translate(1133.000000, 132.000000)">
                <g id="rencaifuwu" fill="#00F0FF">
                    <path d="M9.60614727,13.3704834 L10.5897144,15.0655029 C11.0353401,15.8319824 11.479496,16.5994873 11.9276037,17.3649902 C11.9725205,17.4409912 11.9705446,17.4824951 11.9053863,17.5474854 C11.1643735,18.2820061 10.4259245,19.019177 9.69005301,19.7589844 C9.62588271,19.8234863 9.59036374,19.8344971 9.51978363,19.7625 C8.78054415,19.0202802 8.03946277,18.2799458 7.29654652,17.5415039 C7.24423194,17.489502 7.22743633,17.4544922 7.26989524,17.3809814 C8.03333629,16.0719971 8.79284953,14.7619873 9.55433873,13.4514893 C9.56617035,13.4290039 9.58147195,13.4094971 9.60614727,13.3704834 L9.60614727,13.3704834 Z M18.9674691,19.0935059 C18.8722377,18.5090332 18.7360174,17.9345215 18.531217,17.3790283 C17.5767832,14.7870117 15.8588601,12.911499 13.3765321,11.7560059 C13.1217993,11.6401383 12.8619442,11.5361956 12.5977894,11.4445068 C14.2120472,10.3990234 15.2183137,8.95151367 15.4872603,7.03100586 C15.7567129,5.11201172 15.2281694,3.41503906 13.9356788,1.99052734 C12.7878922,0.717476781 11.162771,-0.00517027838 9.46094365,0.000734727182 C7.75911633,0.00663973274 6.13891866,0.740547409 4.99976537,2.0215332 C3.76944501,3.39501953 3.25027521,5.03151855 3.46743735,6.87250977 C3.70281681,8.85952148 4.72093902,10.3595215 6.37269176,11.4340332 C6.34406453,11.4715088 6.29866579,11.4760254 6.26015879,11.4890137 C6.01441761,11.5760254 5.77506214,11.6750244 5.53867061,11.7840088 C3.68110542,12.648999 2.23118912,13.9719971 1.19333147,15.7555176 C0.603483558,16.7736233 0.204449838,17.893417 0.0163377638,19.0584717 C-0.044386668,19.4229736 0.096267502,19.7424805 0.398299259,19.8814697 C0.757585481,20.0454834 1.12376344,19.9574951 1.35374518,19.664502 C1.47415787,19.511499 1.505243,19.3290039 1.539774,19.147998 C1.87289088,17.4125 2.64919973,15.911499 3.93229251,14.7129883 C6.06868405,12.7165039 8.58556717,12.0314941 11.4104099,12.7029785 C13.6933594,13.2444824 15.4014027,14.6199707 16.5641069,16.6824707 C17.0358779,17.5194824 17.3147283,18.426001 17.4884436,19.3699707 C17.5609755,19.7674805 17.9607206,20.0204834 18.3713094,19.9449951 C18.7567408,19.875 19.0321213,19.4849854 18.9674691,19.0934814 L18.9674691,19.0935059 Z M9.49166244,10.8959961 C8.24807339,10.8989365 7.05467577,10.3992787 6.17592493,9.50774636 C5.29717409,8.61621398 4.80563874,7.40643123 4.81024249,6.14648438 C4.81814631,3.51999512 6.91752486,1.40249023 9.49214438,1.40849609 C12.0722098,1.41450195 14.1700944,3.54350586 14.1686244,6.15400391 C14.1666485,8.76799316 12.0712218,10.9024902 9.49163834,10.8959961 L9.49166244,10.8959961 Z" id="形状"></path>
                </g>
                <g id="rencaifuwu-copy" transform="translate(14.000000, 0.000000)" fill="#0097FF">
                    <path d="M5.96100896,11.5520999 C7.50931307,12.4575786 8.64541254,13.7574393 9.35761242,15.4552896 C9.85272961,16.6328623 10.0390625,17.8700488 9.97468083,19.1520949 C9.95322027,19.557698 9.75662157,19.8379528 9.43321265,19.9169238 C8.96150915,20.0336137 8.53953887,19.6473925 8.57271818,19.1271148 C8.66394341,17.6998656 8.36540111,16.3684066 7.63369379,15.1602558 C6.6585604,13.5479946 5.27174638,12.5380922 3.47956364,12.1457255 C3.20200553,12.0850916 2.92054116,12.0647144 2.64200648,12.0193322 C2.32688643,11.9668591 2.08198361,11.6973278 2.05856993,11.3823895 C2.03175019,11.0241839 2.21710652,10.719994 2.53417969,10.6129827 C3.36394817,10.3301901 4.03417969,9.80789709 4.57662443,9.10317974 C5.14588891,8.36330613 5.47613377,7.51336087 5.54492187,6.5676254 C5.64200648,5.22852807 5.27517626,4.03769407 4.42199409,3.0226662 C3.77029345,2.24661624 2.9551734,1.75641919 1.99368807,1.52813993 C1.59322599,1.43334494 1.1844274,1.41605295 0.775176258,1.41503284 C0.454931361,1.41942142 0.176331021,1.18685384 0.109803735,0.859598925 C0.0200552591,0.423940088 0.32200362,0.0402567675 0.778082127,0.020874801 C1.64979516,-0.0153015525 2.49421208,0.127886146 3.29223037,0.497337779 C5.09956174,1.33195661 6.28980088,2.74392914 6.7380907,4.75617038 C7.21224752,6.8774383 6.69857565,8.76176851 5.29468369,10.3755225 C5.20393483,10.479996 5.10492092,10.5763087 5.00688357,10.6720989 C4.90882241,10.7683867 4.80590225,10.8601214 4.68735709,10.9686754 C5.12769206,11.1231305 5.55393653,11.3183896 5.96100896,11.5520999 Z" id="形状"></path>
                </g>
            </g>
        </g>
    </g>
</svg>