<?xml version="1.0" encoding="UTF-8"?>
<svg width="22px" height="20px" viewBox="0 0 22 20" version="1.1" xmlns="http://www.w3.org/2000/svg" xmlns:xlink="http://www.w3.org/1999/xlink">
    <!-- Generator: Sketch 53.2 (72643) - https://sketchapp.com -->
    <title>wangluokecheng</title>
    <desc>Created with Sketch.</desc>
    <g id="Page-1" stroke="none" stroke-width="1" fill="none" fill-rule="evenodd">
        <g id="主屏最新" transform="translate(-1132.000000, -202.000000)" fill-rule="nonzero">
            <g id="wangluokecheng" transform="translate(1132.000000, 202.000000)">
                <path d="M16.0442781,19.8880208 L5.84431434,19.8880208 C5.37496861,19.8880208 4.99448334,19.5065861 4.99448334,19.0360691 C4.99448334,18.5655521 5.37496861,18.1841174 5.84431434,18.1841174 L16.0442781,18.1841174 C16.5136239,18.1841174 16.8941091,18.5655521 16.8941091,19.0360691 C16.8941091,19.5065861 16.5136239,19.8880208 16.0442781,19.8880208 Z M20.2210913,16.3266496 L1.16851762,16.3266496 C0.524186383,16.3266496 0,15.8011551 0,15.155216 L0,1.39278779 C0,0.746848642 0.524186383,0.221354167 1.16851762,0.221354167 L20.8314824,0.221354167 C21.4758136,0.221354167 22,0.746848642 22,1.39278779 L22,14.5433017 C22,15.5266403 21.2020087,16.3266496 20.2210913,16.3266496 L20.2210913,16.3266496 Z M1.699662,14.6227462 L20.2210913,14.6227462 C20.2648398,14.6227021 20.3002941,14.5871594 20.300338,14.5433017 L20.300338,1.92525762 L1.699662,1.92525762 L1.699662,14.6227462 L1.699662,14.6227462 Z" id="形状" fill="#0097FF"></path>
                <path d="M5,4.72135417 C5,5.36568637 5.52233446,5.88802083 6.16666667,5.88802083 C6.81099887,5.88802083 7.33333333,5.36568637 7.33333333,4.72135417 C7.33333333,4.07702196 6.81099887,3.5546875 6.16666667,3.5546875 C5.52233446,3.5546875 5,4.07702196 5,4.72135417 Z" id="路径" fill="#00F0FF"></path>
                <path d="M16.4871332,5.5546875 L9.17953351,5.5546875 C8.71219302,5.5546875 8.33333333,5.18158854 8.33333333,4.72135417 C8.33333333,4.26111979 8.71219302,3.88802083 9.17953351,3.88802083 L16.4871332,3.88802083 C16.9544736,3.88802083 17.3333333,4.26111979 17.3333333,4.72135417 C17.3333333,5.18158854 16.9544472,5.5546875 16.4871332,5.5546875 Z" id="路径" fill="#00F0FF"></path>
                <path d="M5,8.38802083 C5,9.03235304 5.52233446,9.5546875 6.16666667,9.5546875 C6.81099887,9.5546875 7.33333333,9.03235304 7.33333333,8.38802083 C7.33333333,7.74368863 6.81099887,7.22135417 6.16666667,7.22135417 C5.52233446,7.22135417 5,7.74368863 5,8.38802083 Z" id="路径" fill="#00F0FF"></path>
                <path d="M16.4871332,8.88802083 L9.17953351,8.88802083 C8.71219302,8.88802083 8.33333333,8.51492187 8.33333333,8.0546875 C8.33333333,7.59445312 8.71219302,7.22135417 9.17953351,7.22135417 L16.4871332,7.22135417 C16.9544736,7.22135417 17.3333333,7.59445312 17.3333333,8.0546875 C17.3333333,8.51492187 16.9544472,8.88802083 16.4871332,8.88802083 Z" id="路径" fill="#00F0FF"></path>
                <path d="M5,11.7213541 C4.99999999,12.138164 5.2223654,12.5233122 5.58333332,12.7317171 C5.94430125,12.9401221 6.38903208,12.9401221 6.75000001,12.7317171 C7.11096794,12.5233122 7.33333335,12.138164 7.33333333,11.7213541 C7.33333333,11.077022 6.81099887,10.5546875 6.16666667,10.5546875 C5.52233446,10.5546875 5,11.077022 5,11.7213541 L5,11.7213541 Z" id="路径" fill="#00F0FF"></path>
                <path d="M16.4871332,12.2213542 L9.17953351,12.2213542 C8.71219302,12.2213542 8.33333333,11.8482552 8.33333333,11.3880208 C8.33333333,10.9277865 8.71219302,10.5546875 9.17953351,10.5546875 L16.4871332,10.5546875 C16.9544736,10.5546875 17.3333333,10.9277865 17.3333333,11.3880208 C17.3333333,11.8482552 16.9544472,12.2213542 16.4871332,12.2213542 Z" id="路径" fill="#00F0FF"></path>
            </g>
        </g>
    </g>
</svg>