<?xml version="1.0" encoding="UTF-8"?>
<svg width="171px" height="84px" viewBox="0 0 171 84" version="1.1" xmlns="http://www.w3.org/2000/svg" xmlns:xlink="http://www.w3.org/1999/xlink">
    <!-- Generator: Sketch 53.2 (72643) - https://sketchapp.com -->
    <title>分组 11</title>
    <desc>Created with Sketch.</desc>
    <defs>
        <path d="M73.9221053,0 C112.988177,0 144.996036,31.3736393 147.844211,71.1755725 L0,71.1755725 C2.84817426,31.3736393 34.8560339,0 73.9221053,0 Z" id="path-1"></path>
        <linearGradient x1="6.87023341%" y1="10.9059792%" x2="69.7041257%" y2="61.4533712%" id="linearGradient-3">
            <stop stop-color="#0C95EB" offset="0%"></stop>
            <stop stop-color="#055CD2" offset="100%"></stop>
        </linearGradient>
        <filter x="-49.9%" y="-49.9%" width="199.8%" height="199.8%" filterUnits="objectBoundingBox" id="filter-4">
            <feGaussianBlur stdDeviation="5.62692096" in="SourceGraphic"></feGaussianBlur>
        </filter>
    </defs>
    <g id="Page-1" stroke="none" stroke-width="1" fill="none" fill-rule="evenodd">
        <g id="主屏最新" transform="translate(-1437.000000, -870.000000)">
            <g id="分组-11" transform="translate(1428.000000, 856.000000)">
                <path d="" id="路径-18" stroke="#65A3E7" stroke-width="0.76"></path>
                <g id="未标题-1-2-copy-2" transform="translate(0.000000, 0.000000)" fill-rule="nonzero">
                    <g id="未标题-1" transform="translate(89.662253, 62.675895) rotate(81.000000) translate(-89.662253, -62.675895) translate(41.507362, -21.825486)">
                        <path d="M9.47173364,46.7226655 C3.69754163,58.4110322 0.415806604,71.6893606 0.415806604,85.7411839 C0.415806604,90.2102652 0.748134201,94.6363747 1.37124845,98.8905964 L83.0822965,85.5263242 L9.47173364,46.7226655 Z" id="路径" fill="#53AFFF"></path>
                        <path d="M95.5521334,1.50436257 C91.4359849,0.861774377 86.7366744,0.346127857 82.45588,0.346127857 C68.9960745,0.346127857 56.2771758,3.73042567 45.0812519,9.68507624 L82.2500726,85.5961613 C87.0570062,56.0437955 90.6343201,33.5407008 92.9820144,18.0868772 C93.4790361,14.8152049 94.3357424,9.28770008 95.5521334,1.50436257 Z" id="路径" fill="#B2DFFF"></path>
                        <path d="M45.0812519,9.68507624 C41.3526119,11.6481695 37.8603422,13.8179951 34.3388489,16.4212275 C23.3600756,24.6150081 15.1889816,35.0721336 9.47173364,46.7226655 C20.5639446,52.8266076 28.5406443,57.1585819 33.4018327,59.7185883 C47.6589796,67.2267087 59.2503622,72.9371627 67.8306447,77.4557242 C71.122824,79.1894566 76.0610929,81.7900553 82.6454514,85.2575202 L45.0812519,9.68507624 Z" id="路径" fill="#8ACEFF"></path>
                        <path d="M1.36579081,98.7000742 C2.02818156,102.953436 3.02176767,107.206797 4.34654915,111.417625 C8.5278907,124.645579 15.5657923,136.087122 24.5494667,145.274382 L82.7984525,85.47212 L1.36579081,98.7000742 Z" id="路径" fill="#3881FF"></path>
                        <path d="M24.4352556,145.103764 C27.4006495,148.139615 30.6131596,151.004433 34.0727859,153.6127 C44.987083,161.822327 57.1369609,166.867827 69.616327,168.877476 L82.4251814,84.8998307 L24.4352556,145.103764 Z" id="路径" fill="#2C6DFF"></path>
                    </g>
                </g>
                <g id="合并形状-copy" transform="translate(20.863158, 25.778626)">
                    <mask id="mask-2" fill="white">
                        <use xlink:href="#path-1"></use>
                    </mask>
                    <use id="Mask" fill="#10206E" xlink:href="#path-1"></use>
                    <path d="M76.699927,62.5170503 C76.0448594,63.1774556 75.2774375,63.7269086 74.4285801,64.1345918 C74.6956226,64.8560343 74.8665549,65.6267735 74.9251454,66.429998 C75.5829621,66.2454242 76.2749577,66.1469388 76.9891626,66.1469388 C77.1027043,66.1469388 77.2156847,66.1494278 77.3280557,66.1543562 C77.416318,65.3204395 77.6259738,64.5243416 77.9383272,63.785426 C77.4818188,63.4111314 77.0663133,62.9855375 76.699927,62.5170503 Z M77.2332014,51.6428413 C78.6597074,50.1543615 80.6367645,49.2326531 82.8216749,49.2326531 C87.1703051,49.2326531 90.6955665,52.8838166 90.6955665,57.3877551 C90.6955665,58.549747 90.4609208,59.6549771 90.0380275,60.6553903 C91.8597903,62.1490672 93.0285714,64.4596978 93.0285714,67.0530612 C93.0285714,71.5569997 89.5033101,75.2081633 85.1546798,75.2081633 C85.0411381,75.2081633 84.9281577,75.2056742 84.8157866,75.2007459 C84.3838427,79.2818226 81.0445337,82.4571429 76.9891626,82.4571429 C72.8429329,82.4571429 69.4452108,79.1379458 69.1379088,74.925104 C68.4800921,75.1096778 67.7880965,75.2081633 67.0738916,75.2081633 C62.7252614,75.2081633 59.2,71.5569997 59.2,67.0530612 C59.2,63.9599986 60.8625849,61.269122 63.3126565,59.8867832 C62.917474,58.9302336 62.6995074,57.8823246 62.6995074,56.7836735 C62.6995074,52.279735 66.3626614,48.6285714 70.8813908,48.6285714 C73.444879,48.6285714 75.7330152,49.8036347 77.2332014,51.6428413 Z" id="合并形状" fill="url(#linearGradient-3)" opacity="0.5" filter="url(#filter-4)" mask="url(#mask-2)"></path>
                </g>
                <text id="危" transform="translate(40.763284, 76.995517) rotate(-75.000000) translate(-40.763284, -76.995517) " font-family="PingFangSC-Regular, PingFang SC" font-size="12" font-weight="normal" fill="#B2DFFF">
                    <tspan x="34.7632838" y="81.4955168">危</tspan>
                </text>
                <text id="差" transform="translate(62.446152, 50.361216) rotate(-30.000000) translate(-62.446152, -50.361216) " font-family="PingFangSC-Regular, PingFang SC" font-size="12" font-weight="normal" fill="#B2DFFF">
                    <tspan x="56.4461524" y="54.8612159">差</tspan>
                </text>
                <text id="中" transform="translate(96.000000, 41.500000) rotate(-360.000000) translate(-96.000000, -41.500000) " font-family="PingFangSC-Regular, PingFang SC" font-size="12" font-weight="normal" fill="#B2DFFF">
                    <tspan x="90" y="46">中</tspan>
                </text>
                <text id="良" transform="translate(129.446152, 53.361216) rotate(-330.000000) translate(-129.446152, -53.361216) " font-family="PingFangSC-Regular, PingFang SC" font-size="12" font-weight="normal" fill="#B2DFFF">
                    <tspan x="123.446152" y="57.8612159">良</tspan>
                </text>
                <text id="优" transform="translate(149.763284, 81.995517) rotate(-285.000000) translate(-149.763284, -81.995517) " font-family="PingFangSC-Regular, PingFang SC" font-size="12" font-weight="normal" fill="#B2DFFF">
                    <tspan x="143.763284" y="86.4955168">优</tspan>
                </text>
                <path d="" id="路径-18-copy-2" stroke="#65A3E7" stroke-width="0.76"></path>
            </g>
        </g>
    </g>
</svg>