<?xml version="1.0" encoding="UTF-8"?>
<svg width="29px" height="29px" viewBox="0 0 29 29" version="1.1" xmlns="http://www.w3.org/2000/svg" xmlns:xlink="http://www.w3.org/1999/xlink">
    <!-- Generator: Sketch 53.2 (72643) - https://sketchapp.com -->
    <title>分组 8</title>
    <desc>Created with Sketch.</desc>
    <defs>
        <linearGradient x1="50%" y1="0%" x2="50%" y2="100%" id="linearGradient-1">
            <stop stop-color="#28EBFD" offset="0%"></stop>
            <stop stop-color="#007BFF" offset="100%"></stop>
        </linearGradient>
        <linearGradient x1="50%" y1="0%" x2="50%" y2="100%" id="linearGradient-2">
            <stop stop-color="#15B7FE" offset="0%"></stop>
            <stop stop-color="#007DFF" offset="100%"></stop>
        </linearGradient>
        <linearGradient x1="50%" y1="0%" x2="50%" y2="100%" id="linearGradient-3">
            <stop stop-color="#1AC4FE" offset="0%"></stop>
            <stop stop-color="#017DFF" offset="100%"></stop>
        </linearGradient>
    </defs>
    <g id="Page-1" stroke="none" stroke-width="1" fill="none" fill-rule="evenodd">
        <g id="人才指数-（加大字号范本）" transform="translate(-21.000000, -112.000000)">
            <g id="分组-8" transform="translate(21.000000, 112.000000)">
                <g id="ico_rencai" fill-rule="nonzero">
                    <path d="M26.1935484,10.421875 L2.80645161,10.421875 L2.80645161,24.015625 C2.80645161,25.26625 3.85419355,26.28125 5.14516129,26.28125 L17.3064516,26.28125 L17.3064516,29 L5.14516129,29 C2.30356717,29 3.63508506e-16,26.7684193 0,24.015625 L0,4.984375 C-3.63508506e-16,2.2315807 2.30356717,5.05680109e-16 5.14516129,0 L23.8548387,0 C26.6964328,1.68560036e-16 29,2.2315807 29,4.984375 L29,13.59375 L26.1935484,13.59375 L26.1935484,10.421875 Z M26.1935484,7.703125 L26.1935484,4.984375 C26.1935484,3.73375 25.1458065,2.71875 23.8548387,2.71875 L5.14516129,2.71875 C3.85419355,2.71875 2.80645161,3.73375 2.80645161,4.984375 L2.80645161,7.703125 L26.1935484,7.703125 Z" id="形状" fill="url(#linearGradient-1)"></path>
                    <path d="M24.1666667,16.4333333 L24.1666667,16.4333333 C26.1,16.4333333 27.0666667,17.4 27.0666667,19.3333333 L27.0666667,19.3333333 C27.0666667,21.2666667 26.1,22.2333333 24.1666667,22.2333333 L24.1666667,22.2333333 C22.2333333,22.2333333 21.2666667,21.2666667 21.2666667,19.3333333 L21.2666667,19.3333333 C21.2666667,17.4 22.2333333,16.4333333 24.1666667,16.4333333 Z" id="路径" fill="#68A2FD"></path>
                    <path d="M21.2666667,19.3333333 C21.2666667,17.7317076 22.5650409,16.4333333 24.1666667,16.4333333 C25.7682924,16.4333333 27.0666667,17.7317076 27.0666667,19.3333333 C27.0666667,20.9349591 25.7682924,22.2333333 24.1666667,22.2333333 C22.5650409,22.2333333 21.2666667,20.9349591 21.2666667,19.3333333 Z M22.91,23.2 L26.39,23.2 C28.13,23.2 29,24.1666667 29,26.1 C29,28.0333333 28.13,29 26.39,29 L22.91,29 C21.17,29 20.3,28.0333333 20.3,26.1 C20.3,24.1666667 21.17,23.2 22.91,23.2 Z" id="合并形状" fill="url(#linearGradient-2)"></path>
                </g>
                <path d="M15.7259235,17.375 L15.7259235,23.2400978 L13.1009235,23.2400978 L13.1009235,17.375 L11,17.375 L14.6044085,13 L18,17.375 L15.7259235,17.375 Z" id="合并形状" fill="url(#linearGradient-3)"></path>
            </g>
        </g>
    </g>
</svg>