<?xml version="1.0" encoding="UTF-8"?>
<svg width="24px" height="24px" viewBox="0 0 24 24" version="1.1" xmlns="http://www.w3.org/2000/svg" xmlns:xlink="http://www.w3.org/1999/xlink">
    <!-- Generator: Sketch 53.2 (72643) - https://sketchapp.com -->
    <title>jianzhuanquan</title>
    <desc>Created with Sketch.</desc>
    <defs>
        <linearGradient x1="50%" y1="0%" x2="50%" y2="100%" id="linearGradient-1">
            <stop stop-color="#19F0FF" offset="0%"></stop>
            <stop stop-color="#006FB7" offset="100%"></stop>
        </linearGradient>
    </defs>
    <g id="Page-1" stroke="none" stroke-width="1" fill="none" fill-rule="evenodd">
        <g id="招聘三级屏" transform="translate(-644.000000, -271.000000)" fill="url(#linearGradient-1)" fill-rule="nonzero">
            <g id="jianzhuanquan" transform="translate(644.000000, 271.000000)">
                <path d="M22.000125,24 L1.999875,24 C0.895374536,24 1.35262296e-16,23.1046255 0,22.000125 L0,1.999875 C-1.35262296e-16,0.895374536 0.895374536,2.02893444e-16 1.999875,0 L13.999875,0 C15.1044361,-1.94112614e-08 15.9999179,0.895313879 16.000125,1.999875 L16.000125,9 L22.000125,9 C23.1046255,9 24,9.89537454 24,10.999875 L24,22.000125 C24,23.1046255 23.1046255,24 22.000125,24 Z M14.00025,9 L14.00025,1.999875 L2.00025,1.999875 L2.00025,22.000125 L14.00025,22.000125 L14.00025,9 Z M22.000125,10.999875 L16.000125,10.999875 L16.000125,22.000125 L22.000125,22.000125 L22.000125,10.999875 Z M4.999875,4.999875 L6,4.999875 C6.55235379,4.999875 7.000125,5.44764621 7.000125,6 L7.000125,7.000125 C6.99991795,7.55233233 6.55220737,7.99987504 6,7.999875 L4.999875,7.999875 C4.44781407,7.99966804 4.00033196,7.55218593 4.000125,7.000125 L4.000125,6 C4.00012496,5.44779263 4.44766767,5.00008205 4.999875,4.999875 L4.999875,4.999875 Z M4.999875,10.999875 L6,10.999875 C6.55235379,10.999875 7.000125,11.4476462 7.000125,12 L7.000125,13.000125 C6.99991795,13.5523323 6.55220737,13.999875 6,13.999875 L4.999875,13.999875 C4.44781407,13.999668 4.00033196,13.5521859 4.000125,13.000125 L4.000125,12 C4.00012496,11.4477926 4.44766767,11.0000821 4.999875,10.999875 L4.999875,10.999875 Z M4.999875,16.999875 L6,16.999875 C6.55235379,16.999875 7.000125,17.4476462 7.000125,18 L7.000125,19.000125 C6.99991795,19.5523323 6.55220737,19.999875 6,19.999875 L4.999875,19.999875 C4.44781407,19.999668 4.00033196,19.5521859 4.000125,19.000125 L4.000125,18 C4.00012496,17.4477926 4.44766767,17.0000821 4.999875,16.999875 L4.999875,16.999875 Z M10.000125,4.999875 L10.999875,4.999875 C11.5522288,4.999875 12,5.44764621 12,6 L12,7.000125 C11.9997929,7.55233233 11.5520824,7.99987504 10.999875,7.999875 L10.000125,7.999875 C9.44791763,7.99987504 9.00020705,7.55233233 9,7.000125 L9,6 C9,5.44764621 9.44777121,4.999875 10.000125,4.999875 Z M10.000125,10.999875 L10.999875,10.999875 C11.5522288,10.999875 12,11.4476462 12,12 L12,13.000125 C11.9997929,13.5523323 11.5520824,13.999875 10.999875,13.999875 L10.000125,13.999875 C9.44791763,13.999875 9.00020705,13.5523323 9,13.000125 L9,12 C9,11.4476462 9.44777121,10.999875 10.000125,10.999875 Z M10.000125,16.999875 L10.999875,16.999875 C11.5522288,16.999875 12,17.4476462 12,18 L12,19.000125 C11.9997929,19.5523323 11.5520824,19.999875 10.999875,19.999875 L10.000125,19.999875 C9.44791763,19.999875 9.00020705,19.5523323 9,19.000125 L9,18 C9,17.4476462 9.44777121,16.999875 10.000125,16.999875 Z" id="形状"></path>
            </g>
        </g>
    </g>
</svg>