<?xml version="1.0" encoding="UTF-8"?>
<svg width="25px" height="26px" viewBox="0 0 25 26" version="1.1" xmlns="http://www.w3.org/2000/svg" xmlns:xlink="http://www.w3.org/1999/xlink">
    <!-- Generator: Sketch 53.2 (72643) - https://sketchapp.com -->
    <title>yuangongguanli</title>
    <desc>Created with Sketch.</desc>
    <defs>
        <linearGradient x1="50%" y1="0%" x2="50%" y2="100%" id="linearGradient-1">
            <stop stop-color="#16E4F8" offset="0%"></stop>
            <stop stop-color="#047FC0" offset="100%"></stop>
        </linearGradient>
    </defs>
    <g id="Page-1" stroke="none" stroke-width="1" fill="none" fill-rule="evenodd">
        <g id="招聘三级屏" transform="translate(-1113.000000, -273.000000)" fill="url(#linearGradient-1)" fill-rule="nonzero">
            <g id="yuangongguanli" transform="translate(1113.000000, 273.000000)">
                <path d="M8.09427431,12.8803627 C7.62529475,12.3175869 7.34334204,11.594707 7.34334204,10.80625 L7.34334204,9.5875 C7.34334204,7.79257456 8.80455369,6.3375 10.6070496,6.3375 C12.4095455,6.3375 13.8707572,7.79257456 13.8707572,9.5875 L13.8707572,10.80625 C13.8707572,11.594707 13.5888045,12.3175869 13.1198249,12.8803627 L15.0130548,14.3 C15.8348755,14.9137767 16.3185379,15.8770388 16.3185379,16.9 L16.3185379,18.11875 C16.3185379,18.5674814 15.9532349,18.93125 15.502611,18.93125 L5.71148825,18.93125 C5.26086427,18.93125 4.89556136,18.5674814 4.89556136,18.11875 L4.89556136,16.9 C4.89556136,15.8770388 5.37922375,14.9137767 6.20104439,14.3 L8.09427431,12.8803627 Z M9.72458003,12.1733789 C9.77838756,12.196592 9.82999226,12.2257242 9.87833128,12.2606244 C10.0976671,12.3698137 10.3451535,12.43125 10.6070496,12.43125 C10.8689457,12.43125 11.1164322,12.3698137 11.335768,12.2606243 C11.384107,12.2257242 11.4357117,12.196592 11.4895192,12.1733789 C11.9403507,11.8842135 12.2389034,11.3799507 12.2389034,10.80625 L12.2389034,9.5875 C12.2389034,8.69003728 11.5082976,7.9625 10.6070496,7.9625 C9.70580165,7.9625 8.97519582,8.69003728 8.97519582,9.5875 L8.97519582,10.80625 C8.97519582,11.3799506 9.2737485,11.8842134 9.72458003,12.1733789 Z M9.49635392,13.8632009 L7.18015666,15.6 C6.76924634,15.9068884 6.52741514,16.3885194 6.52741514,16.9 L6.52741514,17.30625 L14.6866841,17.30625 L14.6866841,16.9 C14.6866841,16.3885194 14.4448529,15.9068884 14.0339426,15.6 L11.7177453,13.8632009 C11.3710515,13.9881352 10.9970386,14.05625 10.6070496,14.05625 C10.2170606,14.05625 9.84304772,13.9881352 9.49635392,13.8632009 Z M18.6194517,26 L0.815926893,26 C0.365302913,26 9.05860823e-17,25.6362314 0,25.1875 L0,0.8125 C-9.05860823e-17,0.363768641 0.365302913,8.24306134e-17 0.815926893,0 L18.6194517,0 C20.2957729,1.02213961e-16 21.6546997,1.35321934 21.6546997,3.0225 L21.6546997,22.9775 C21.6546997,23.7791168 21.3349156,24.5479015 20.7656962,25.1147302 C20.1964767,25.6815589 19.4244495,26 18.6194517,26 Z M1.63185379,24.375 L18.6194517,24.375 C19.3908434,24.3662203 20.0140292,23.7456519 20.022846,22.9775 L20.022846,3.0225 C20.0140292,2.25434814 19.3908434,1.63377974 18.6194517,1.625 L1.63185379,1.625 L1.63185379,24.375 Z M24.1840731,10.48125 C23.7334491,10.48125 23.3681462,10.1174814 23.3681462,9.66875 L23.3681462,5.24875 C23.3681462,4.80001864 23.7334491,4.43625 24.1840731,4.43625 C24.6346971,4.43625 25,4.80001864 25,5.24875 L25,9.75 C24.9579455,10.1667323 24.6046655,10.4833489 24.1840731,10.48125 Z" id="合并形状"></path>
            </g>
        </g>
    </g>
</svg>