<?xml version="1.0" encoding="UTF-8"?>
<svg width="13px" height="28px" viewBox="0 0 13 28" version="1.1" xmlns="http://www.w3.org/2000/svg" xmlns:xlink="http://www.w3.org/1999/xlink">
    <!-- Generator: Sketch 53.2 (72643) - https://sketchapp.com -->
    <title>zhiwei</title>
    <desc>Created with Sketch.</desc>
    <defs>
        <linearGradient x1="50%" y1="0%" x2="50%" y2="100%" id="linearGradient-1">
            <stop stop-color="#17E9FB" offset="0%"></stop>
            <stop stop-color="#0277BB" offset="100%"></stop>
        </linearGradient>
    </defs>
    <g id="Page-1" stroke="none" stroke-width="1" fill="none" fill-rule="evenodd">
        <g id="招聘三级屏" transform="translate(-879.000000, -275.000000)" fill="url(#linearGradient-1)" fill-rule="nonzero">
            <g id="zhiwei" transform="translate(879.000000, 275.000000)">
                <path d="M9.49225165,7 L3.50866844,7 C3.12716996,6.99965748 2.79726485,6.71355458 2.71562428,6.31225 L1.64468964,1.06225 C1.59206371,0.803567924 1.65105953,0.533137638 1.80514312,0.326749017 C1.9592267,0.120360396 2.19181875,0.000220747224 2.4377338,0 L10.5631863,0 C10.8093089,0.000887283925 11.0419042,0.121385922 11.1961562,0.327917331 C11.3504082,0.534448741 11.4098273,0.804934472 11.3578555,1.064 L10.2869209,6.314 C10.2028502,6.71414725 9.87322745,6.99869482 9.49225165,7 Z M4.16195482,5.25 L8.83734018,5.25 L9.5507549,1.75 L3.44854009,1.75 L4.16195482,5.25 Z M6.50046004,28 C6.27261909,27.9996254 6.05526233,27.8968658 5.90080165,27.7165 L0.212984911,21.03325 C0.0356649716,20.8238336 -0.0369491502,20.535162 0.0179740509,20.258 L2.19072004,9.44125 C2.27116893,9.03791345 2.60229929,8.74987682 2.9853893,8.75 L10.0155308,8.75 C10.3980113,8.75070089 10.7282545,9.03855448 10.8085749,9.44125 L12.9813209,20.258 C13.037647,20.535201 12.9648594,20.8245623 12.7863101,21.03325 L7.09849334,27.7165 C6.94488949,27.8971314 6.72790313,27.9999947 6.50046004,28 Z M1.69506744,20.18275 L6.50046004,25.83 L11.3058526,20.18275 L9.36061931,10.5 L3.64030077,10.5 L1.69506744,20.18275 Z" id="形状"></path>
            </g>
        </g>
    </g>
</svg>